G04 Layer_Physical_Order=4*
G04 Layer_Color=16711680*
%FSLAX25Y25*%
%MOIN*%
G70*
G01*
G75*
%ADD20C,0.01200*%
%ADD23C,0.05905*%
%ADD24C,0.06299*%
%ADD25C,0.02400*%
%ADD26C,0.02200*%
%ADD27C,0.02780*%
%ADD28C,0.02781*%
%ADD29C,0.02981*%
G36*
X136830Y52690D02*
X136373Y52094D01*
X135954Y51084D01*
X135811Y50000D01*
X135954Y48916D01*
X136373Y47906D01*
X137038Y47038D01*
X137906Y46373D01*
X138916Y45954D01*
X140000Y45811D01*
X141084Y45954D01*
X142094Y46373D01*
X142691Y46830D01*
X143191Y46584D01*
Y43100D01*
X142691Y42918D01*
X141993Y43453D01*
X141032Y43851D01*
X141000Y43855D01*
Y40000D01*
Y36145D01*
X141032Y36149D01*
X141993Y36547D01*
X142691Y37082D01*
X143191Y36900D01*
Y33665D01*
X142691Y33418D01*
X142194Y33799D01*
X141136Y34238D01*
X140000Y34387D01*
X138865Y34238D01*
X137806Y33799D01*
X136898Y33102D01*
X136201Y32194D01*
X135762Y31135D01*
X135613Y30000D01*
X135762Y28864D01*
X136201Y27806D01*
X136898Y26898D01*
X137806Y26201D01*
X138865Y25762D01*
X140000Y25613D01*
X141136Y25762D01*
X142194Y26201D01*
X142691Y26582D01*
X143191Y26335D01*
Y23665D01*
X142691Y23418D01*
X142194Y23799D01*
X141136Y24238D01*
X140000Y24387D01*
X138865Y24238D01*
X137806Y23799D01*
X136898Y23102D01*
X136201Y22194D01*
X135762Y21136D01*
X135613Y20000D01*
X135762Y18865D01*
X136201Y17806D01*
X136898Y16898D01*
X137806Y16201D01*
X138865Y15762D01*
X140000Y15613D01*
X141136Y15762D01*
X142194Y16201D01*
X142691Y16582D01*
X143191Y16335D01*
Y13665D01*
X142690Y13418D01*
X142194Y13799D01*
X141136Y14238D01*
X140000Y14387D01*
X138865Y14238D01*
X137806Y13799D01*
X136898Y13102D01*
X136201Y12194D01*
X135762Y11135D01*
X135613Y10000D01*
X135762Y8864D01*
X136201Y7806D01*
X136898Y6898D01*
X137806Y6201D01*
X138865Y5762D01*
X140000Y5613D01*
X141136Y5762D01*
X142194Y6201D01*
X142690Y6582D01*
X143191Y6335D01*
X143190Y3665D01*
X142690Y3418D01*
X142194Y3799D01*
X141136Y4238D01*
X140000Y4387D01*
X138865Y4238D01*
X137806Y3799D01*
X136898Y3102D01*
X136201Y2194D01*
X135762Y1135D01*
X135613Y0D01*
X135762Y-1135D01*
X136201Y-2194D01*
X136898Y-3102D01*
X137806Y-3799D01*
X138865Y-4238D01*
X140000Y-4387D01*
X141136Y-4238D01*
X142194Y-3799D01*
X142690Y-3418D01*
X143190Y-3665D01*
Y-6900D01*
X142690Y-7082D01*
X141993Y-6547D01*
X141032Y-6149D01*
X141000Y-6145D01*
Y-10000D01*
Y-13855D01*
X141032Y-13851D01*
X141993Y-13453D01*
X142690Y-12918D01*
X143190Y-13100D01*
X143190Y-16583D01*
X142690Y-16830D01*
X142094Y-16373D01*
X141084Y-15954D01*
X140000Y-15811D01*
X138916Y-15954D01*
X137906Y-16373D01*
X137038Y-17038D01*
X136373Y-17906D01*
X135954Y-18916D01*
X135811Y-20000D01*
X135954Y-21084D01*
X136373Y-22094D01*
X137038Y-22962D01*
X137906Y-23627D01*
X138916Y-24046D01*
X140000Y-24189D01*
X141084Y-24046D01*
X142094Y-23627D01*
X142690Y-23170D01*
X143190Y-23417D01*
Y-26583D01*
X142690Y-26830D01*
X142094Y-26373D01*
X141084Y-25954D01*
X140000Y-25811D01*
X138916Y-25954D01*
X137906Y-26373D01*
X137038Y-27038D01*
X136373Y-27906D01*
X135954Y-28916D01*
X135811Y-30000D01*
X135954Y-31084D01*
X136373Y-32094D01*
X137038Y-32962D01*
X137906Y-33627D01*
X138916Y-34046D01*
X140000Y-34189D01*
X141084Y-34046D01*
X142094Y-33627D01*
X142690Y-33170D01*
X143190Y-33417D01*
Y-36900D01*
X142690Y-37082D01*
X141993Y-36547D01*
X141032Y-36149D01*
X141000Y-36145D01*
Y-40000D01*
X140000D01*
Y-41000D01*
X136145D01*
X136149Y-41032D01*
X136547Y-41993D01*
X137082Y-42690D01*
X136900Y-43190D01*
X3417D01*
X3170Y-42690D01*
X3627Y-42094D01*
X4046Y-41084D01*
X4189Y-40000D01*
X4046Y-38916D01*
X3939Y-38657D01*
X45760Y3165D01*
X93725D01*
X96927Y-38D01*
X97342Y-658D01*
X98103Y-1166D01*
X99000Y-1345D01*
X99897Y-1166D01*
X100658Y-658D01*
X101166Y103D01*
X101345Y1000D01*
X101166Y1897D01*
X100658Y2658D01*
X99897Y3167D01*
X99000Y3345D01*
X98779Y3301D01*
X95783Y6298D01*
X95187Y6696D01*
X94485Y6835D01*
X45000D01*
X44298Y6696D01*
X43702Y6298D01*
X1343Y-36061D01*
X1084Y-35954D01*
X0Y-35811D01*
X-1084Y-35954D01*
X-2094Y-36373D01*
X-2691Y-36830D01*
X-3190Y-36584D01*
Y-33417D01*
X-2691Y-33170D01*
X-2094Y-33627D01*
X-1084Y-34046D01*
X0Y-34189D01*
X1084Y-34046D01*
X2094Y-33627D01*
X2962Y-32962D01*
X3627Y-32094D01*
X4046Y-31084D01*
X4189Y-30000D01*
X4046Y-28916D01*
X3627Y-27906D01*
X2962Y-27038D01*
X2094Y-26373D01*
X1084Y-25954D01*
X0Y-25811D01*
X-1084Y-25954D01*
X-2094Y-26373D01*
X-2691Y-26830D01*
X-3190Y-26583D01*
Y-23416D01*
X-2691Y-23170D01*
X-2094Y-23627D01*
X-1084Y-24046D01*
X0Y-24189D01*
X1084Y-24046D01*
X2094Y-23627D01*
X2962Y-22962D01*
X3627Y-22094D01*
X4046Y-21084D01*
X4189Y-20000D01*
X4046Y-18916D01*
X3627Y-17906D01*
X2962Y-17038D01*
X2094Y-16373D01*
X1084Y-15954D01*
X0Y-15811D01*
X-1084Y-15954D01*
X-2094Y-16373D01*
X-2691Y-16830D01*
X-3190Y-16583D01*
Y-13100D01*
X-2691Y-12918D01*
X-1993Y-13453D01*
X-1032Y-13851D01*
X-1000Y-13855D01*
Y-10000D01*
Y-6145D01*
X-1032Y-6149D01*
X-1993Y-6547D01*
X-2691Y-7082D01*
X-3190Y-6900D01*
X-3190Y-3416D01*
X-2691Y-3170D01*
X-2094Y-3627D01*
X-1084Y-4046D01*
X0Y-4189D01*
X1084Y-4046D01*
X2094Y-3627D01*
X2962Y-2962D01*
X3627Y-2094D01*
X4046Y-1084D01*
X4189Y0D01*
X4046Y1084D01*
X3627Y2094D01*
X2962Y2962D01*
X2094Y3627D01*
X1084Y4046D01*
X0Y4189D01*
X-1084Y4046D01*
X-2094Y3627D01*
X-2691Y3170D01*
X-3190Y3416D01*
Y6583D01*
X-2691Y6830D01*
X-2094Y6373D01*
X-1084Y5954D01*
X0Y5811D01*
X1084Y5954D01*
X2094Y6373D01*
X2962Y7038D01*
X3627Y7906D01*
X4046Y8916D01*
X4189Y10000D01*
X4046Y11084D01*
X3627Y12094D01*
X2962Y12962D01*
X2094Y13627D01*
X1084Y14046D01*
X0Y14189D01*
X-1084Y14046D01*
X-2094Y13627D01*
X-2691Y13170D01*
X-3190Y13417D01*
X-3190Y16583D01*
X-2691Y16830D01*
X-2094Y16373D01*
X-1084Y15954D01*
X0Y15811D01*
X1084Y15954D01*
X2094Y16373D01*
X2962Y17038D01*
X3627Y17906D01*
X4046Y18916D01*
X4189Y20000D01*
X4046Y21084D01*
X3627Y22094D01*
X2962Y22962D01*
X2094Y23627D01*
X1084Y24046D01*
X0Y24189D01*
X-1084Y24046D01*
X-2094Y23627D01*
X-2691Y23170D01*
X-3190Y23416D01*
Y26583D01*
X-2691Y26830D01*
X-2094Y26373D01*
X-1084Y25954D01*
X0Y25811D01*
X1084Y25954D01*
X2094Y26373D01*
X2962Y27038D01*
X3627Y27906D01*
X4046Y28916D01*
X4189Y30000D01*
X4046Y31084D01*
X3627Y32094D01*
X2962Y32962D01*
X2094Y33627D01*
X1084Y34046D01*
X0Y34189D01*
X-1084Y34046D01*
X-2094Y33627D01*
X-2691Y33170D01*
X-3190Y33417D01*
Y36900D01*
X-2691Y37082D01*
X-1993Y36547D01*
X-1032Y36149D01*
X-1000Y36145D01*
Y40000D01*
Y43855D01*
X-1032Y43851D01*
X-1993Y43453D01*
X-2691Y42918D01*
X-3190Y43100D01*
Y46584D01*
X-2691Y46830D01*
X-2094Y46373D01*
X-1084Y45954D01*
X0Y45811D01*
X1084Y45954D01*
X2094Y46373D01*
X2962Y47038D01*
X3627Y47906D01*
X4046Y48916D01*
X4189Y50000D01*
X4046Y51084D01*
X3627Y52094D01*
X3170Y52690D01*
X3417Y53190D01*
X136583D01*
X136830Y52690D01*
D02*
G37*
%LPC*%
G36*
X1000Y-6145D02*
Y-9000D01*
X3855D01*
X3851Y-8968D01*
X3453Y-8007D01*
X2819Y-7181D01*
X1993Y-6547D01*
X1032Y-6149D01*
X1000Y-6145D01*
D02*
G37*
G36*
X55827Y1141D02*
X55151Y1051D01*
X54520Y790D01*
X53979Y375D01*
X53564Y-166D01*
X53303Y-796D01*
X53214Y-1472D01*
X53303Y-2149D01*
X53564Y-2779D01*
X53979Y-3320D01*
X54520Y-3735D01*
X55151Y-3996D01*
X55827Y-4085D01*
X56503Y-3996D01*
X57133Y-3735D01*
X57674Y-3320D01*
X58090Y-2779D01*
X58351Y-2149D01*
X58440Y-1472D01*
X58351Y-796D01*
X58090Y-166D01*
X57674Y375D01*
X57133Y790D01*
X56503Y1051D01*
X55827Y1141D01*
D02*
G37*
G36*
X139000Y-6145D02*
X138968Y-6149D01*
X138007Y-6547D01*
X137181Y-7181D01*
X136547Y-8007D01*
X136149Y-8968D01*
X136145Y-9000D01*
X139000D01*
Y-6145D01*
D02*
G37*
G36*
X63327Y-3859D02*
X62651Y-3949D01*
X62020Y-4210D01*
X61479Y-4625D01*
X61064Y-5166D01*
X60803Y-5796D01*
X60714Y-6472D01*
X60803Y-7149D01*
X61064Y-7779D01*
X61479Y-8320D01*
X62020Y-8735D01*
X62651Y-8996D01*
X63327Y-9085D01*
X64003Y-8996D01*
X64633Y-8735D01*
X65174Y-8320D01*
X65590Y-7779D01*
X65851Y-7149D01*
X65940Y-6472D01*
X65851Y-5796D01*
X65590Y-5166D01*
X65174Y-4625D01*
X64633Y-4210D01*
X64003Y-3949D01*
X63327Y-3859D01*
D02*
G37*
G36*
X139000Y-11000D02*
X136145D01*
X136149Y-11032D01*
X136547Y-11993D01*
X137181Y-12819D01*
X138007Y-13453D01*
X138968Y-13851D01*
X139000Y-13855D01*
Y-11000D01*
D02*
G37*
G36*
X55827Y14085D02*
X55151Y13996D01*
X54520Y13735D01*
X53979Y13320D01*
X53564Y12779D01*
X53303Y12149D01*
X53214Y11472D01*
X53303Y10796D01*
X53564Y10166D01*
X53979Y9625D01*
X54520Y9210D01*
X55151Y8948D01*
X55827Y8860D01*
X56503Y8948D01*
X57133Y9210D01*
X57674Y9625D01*
X58090Y10166D01*
X58351Y10796D01*
X58440Y11472D01*
X58351Y12149D01*
X58090Y12779D01*
X57674Y13320D01*
X57133Y13735D01*
X56503Y13996D01*
X55827Y14085D01*
D02*
G37*
G36*
X71575D02*
X70898Y13996D01*
X70268Y13735D01*
X69727Y13320D01*
X69312Y12779D01*
X69051Y12149D01*
X68962Y11472D01*
X69051Y10796D01*
X69312Y10166D01*
X69727Y9625D01*
X70268Y9210D01*
X70898Y8948D01*
X71575Y8860D01*
X72251Y8948D01*
X72881Y9210D01*
X73422Y9625D01*
X73838Y10166D01*
X74099Y10796D01*
X74188Y11472D01*
X74099Y12149D01*
X73838Y12779D01*
X73422Y13320D01*
X72881Y13735D01*
X72251Y13996D01*
X71575Y14085D01*
D02*
G37*
G36*
X102776Y11122D02*
X102099Y11033D01*
X101469Y10772D01*
X100928Y10357D01*
X100513Y9816D01*
X100252Y9186D01*
X100163Y8509D01*
X100252Y7833D01*
X100513Y7203D01*
X100928Y6662D01*
X101469Y6247D01*
X102099Y5985D01*
X102776Y5897D01*
X103452Y5985D01*
X104082Y6247D01*
X104623Y6662D01*
X105038Y7203D01*
X105299Y7833D01*
X105388Y8509D01*
X105299Y9186D01*
X105038Y9816D01*
X104623Y10357D01*
X104082Y10772D01*
X103452Y11033D01*
X102776Y11122D01*
D02*
G37*
G36*
X71575Y1141D02*
X70898Y1051D01*
X70268Y790D01*
X69727Y375D01*
X69312Y-166D01*
X69051Y-796D01*
X68962Y-1472D01*
X69051Y-2149D01*
X69312Y-2779D01*
X69727Y-3320D01*
X70268Y-3735D01*
X70898Y-3996D01*
X71575Y-4085D01*
X72251Y-3996D01*
X72881Y-3735D01*
X73422Y-3320D01*
X73838Y-2779D01*
X74099Y-2149D01*
X74188Y-1472D01*
X74099Y-796D01*
X73838Y-166D01*
X73422Y375D01*
X72881Y790D01*
X72251Y1051D01*
X71575Y1141D01*
D02*
G37*
G36*
X78327D02*
X77650Y1051D01*
X77020Y790D01*
X76479Y375D01*
X76064Y-166D01*
X75803Y-796D01*
X75714Y-1472D01*
X75803Y-2149D01*
X76064Y-2779D01*
X76479Y-3320D01*
X77020Y-3735D01*
X77650Y-3996D01*
X78327Y-4085D01*
X79003Y-3996D01*
X79633Y-3735D01*
X80174Y-3320D01*
X80590Y-2779D01*
X80851Y-2149D01*
X80940Y-1472D01*
X80851Y-796D01*
X80590Y-166D01*
X80174Y375D01*
X79633Y790D01*
X79003Y1051D01*
X78327Y1141D01*
D02*
G37*
G36*
X72776Y-26978D02*
X72099Y-27067D01*
X71469Y-27328D01*
X70928Y-27743D01*
X70513Y-28284D01*
X70252Y-28914D01*
X70163Y-29591D01*
X70252Y-30267D01*
X70513Y-30897D01*
X70928Y-31438D01*
X71469Y-31853D01*
X72099Y-32114D01*
X72776Y-32204D01*
X73452Y-32114D01*
X74082Y-31853D01*
X74623Y-31438D01*
X75038Y-30897D01*
X75300Y-30267D01*
X75388Y-29591D01*
X75300Y-28914D01*
X75038Y-28284D01*
X74623Y-27743D01*
X74082Y-27328D01*
X73452Y-27067D01*
X72776Y-26978D01*
D02*
G37*
G36*
X88524D02*
X87847Y-27067D01*
X87217Y-27328D01*
X86676Y-27743D01*
X86261Y-28284D01*
X86000Y-28914D01*
X85911Y-29591D01*
X86000Y-30267D01*
X86261Y-30897D01*
X86676Y-31438D01*
X87217Y-31853D01*
X87847Y-32114D01*
X88524Y-32204D01*
X89200Y-32114D01*
X89830Y-31853D01*
X90371Y-31438D01*
X90786Y-30897D01*
X91048Y-30267D01*
X91136Y-29591D01*
X91048Y-28914D01*
X90786Y-28284D01*
X90371Y-27743D01*
X89830Y-27328D01*
X89200Y-27067D01*
X88524Y-26978D01*
D02*
G37*
G36*
X81024Y-31978D02*
X80347Y-32067D01*
X79717Y-32328D01*
X79176Y-32743D01*
X78761Y-33284D01*
X78500Y-33914D01*
X78411Y-34591D01*
X78500Y-35267D01*
X78761Y-35897D01*
X79176Y-36438D01*
X79717Y-36853D01*
X80347Y-37115D01*
X81024Y-37203D01*
X81700Y-37115D01*
X82330Y-36853D01*
X82871Y-36438D01*
X83286Y-35897D01*
X83548Y-35267D01*
X83636Y-34591D01*
X83548Y-33914D01*
X83286Y-33284D01*
X82871Y-32743D01*
X82330Y-32328D01*
X81700Y-32067D01*
X81024Y-31978D01*
D02*
G37*
G36*
X139000Y-36145D02*
X138968Y-36149D01*
X138007Y-36547D01*
X137181Y-37181D01*
X136547Y-38007D01*
X136149Y-38968D01*
X136145Y-39000D01*
X139000D01*
Y-36145D01*
D02*
G37*
G36*
X65276Y-31978D02*
X64599Y-32067D01*
X63969Y-32328D01*
X63428Y-32743D01*
X63013Y-33284D01*
X62752Y-33914D01*
X62663Y-34591D01*
X62752Y-35267D01*
X63013Y-35897D01*
X63428Y-36438D01*
X63969Y-36853D01*
X64599Y-37115D01*
X65276Y-37203D01*
X65952Y-37115D01*
X66582Y-36853D01*
X67123Y-36438D01*
X67538Y-35897D01*
X67800Y-35267D01*
X67888Y-34591D01*
X67800Y-33914D01*
X67538Y-33284D01*
X67123Y-32743D01*
X66582Y-32328D01*
X65952Y-32067D01*
X65276Y-31978D01*
D02*
G37*
G36*
X71575Y-8860D02*
X70898Y-8948D01*
X70268Y-9210D01*
X69727Y-9625D01*
X69312Y-10166D01*
X69051Y-10796D01*
X68962Y-11472D01*
X69051Y-12149D01*
X69312Y-12779D01*
X69727Y-13320D01*
X70268Y-13735D01*
X70898Y-13996D01*
X71575Y-14085D01*
X72251Y-13996D01*
X72881Y-13735D01*
X73422Y-13320D01*
X73838Y-12779D01*
X74099Y-12149D01*
X74188Y-11472D01*
X74099Y-10796D01*
X73838Y-10166D01*
X73422Y-9625D01*
X72881Y-9210D01*
X72251Y-8948D01*
X71575Y-8860D01*
D02*
G37*
G36*
X3855Y-11000D02*
X1000D01*
Y-13855D01*
X1032Y-13851D01*
X1993Y-13453D01*
X2819Y-12819D01*
X3453Y-11993D01*
X3851Y-11032D01*
X3855Y-11000D01*
D02*
G37*
G36*
X55827Y-8860D02*
X55151Y-8948D01*
X54520Y-9210D01*
X53979Y-9625D01*
X53564Y-10166D01*
X53303Y-10796D01*
X53214Y-11472D01*
X53303Y-12149D01*
X53564Y-12779D01*
X53979Y-13320D01*
X54520Y-13735D01*
X55151Y-13996D01*
X55827Y-14085D01*
X56503Y-13996D01*
X57133Y-13735D01*
X57674Y-13320D01*
X58090Y-12779D01*
X58351Y-12149D01*
X58440Y-11472D01*
X58351Y-10796D01*
X58090Y-10166D01*
X57674Y-9625D01*
X57133Y-9210D01*
X56503Y-8948D01*
X55827Y-8860D01*
D02*
G37*
G36*
X65276Y-21978D02*
X64599Y-22067D01*
X63969Y-22328D01*
X63428Y-22743D01*
X63013Y-23284D01*
X62752Y-23914D01*
X62663Y-24591D01*
X62752Y-25267D01*
X63013Y-25897D01*
X63428Y-26438D01*
X63969Y-26853D01*
X64599Y-27114D01*
X65276Y-27204D01*
X65952Y-27114D01*
X66582Y-26853D01*
X67123Y-26438D01*
X67538Y-25897D01*
X67800Y-25267D01*
X67888Y-24591D01*
X67800Y-23914D01*
X67538Y-23284D01*
X67123Y-22743D01*
X66582Y-22328D01*
X65952Y-22067D01*
X65276Y-21978D01*
D02*
G37*
G36*
X81024D02*
X80347Y-22067D01*
X79717Y-22328D01*
X79176Y-22743D01*
X78761Y-23284D01*
X78500Y-23914D01*
X78411Y-24591D01*
X78500Y-25267D01*
X78761Y-25897D01*
X79176Y-26438D01*
X79717Y-26853D01*
X80347Y-27114D01*
X81024Y-27204D01*
X81700Y-27114D01*
X82330Y-26853D01*
X82871Y-26438D01*
X83286Y-25897D01*
X83548Y-25267D01*
X83636Y-24591D01*
X83548Y-23914D01*
X83286Y-23284D01*
X82871Y-22743D01*
X82330Y-22328D01*
X81700Y-22067D01*
X81024Y-21978D01*
D02*
G37*
G36*
X121900Y50617D02*
X120816Y50474D01*
X119806Y50055D01*
X118938Y49390D01*
X118273Y48522D01*
X117854Y47512D01*
X117711Y46428D01*
X117854Y45344D01*
X118273Y44334D01*
X118938Y43466D01*
X119806Y42801D01*
X120816Y42382D01*
X121900Y42239D01*
X122984Y42382D01*
X123994Y42801D01*
X124862Y43466D01*
X125527Y44334D01*
X125946Y45344D01*
X126089Y46428D01*
X125946Y47512D01*
X125527Y48522D01*
X124862Y49390D01*
X123994Y50055D01*
X122984Y50474D01*
X121900Y50617D01*
D02*
G37*
G36*
X110900Y45428D02*
X108045D01*
X108049Y45396D01*
X108447Y44434D01*
X109081Y43609D01*
X109907Y42975D01*
X110868Y42577D01*
X110900Y42573D01*
Y45428D01*
D02*
G37*
G36*
X1000Y43855D02*
Y41000D01*
X3855D01*
X3851Y41032D01*
X3453Y41993D01*
X2819Y42819D01*
X1993Y43453D01*
X1032Y43851D01*
X1000Y43855D01*
D02*
G37*
G36*
X88433Y43172D02*
X87757Y43083D01*
X87127Y42822D01*
X86585Y42407D01*
X86170Y41866D01*
X85909Y41235D01*
X85820Y40559D01*
X85909Y39883D01*
X86170Y39253D01*
X86585Y38712D01*
X87127Y38296D01*
X87757Y38035D01*
X88433Y37946D01*
X89109Y38035D01*
X89740Y38296D01*
X90281Y38712D01*
X90696Y39253D01*
X90957Y39883D01*
X91046Y40559D01*
X90957Y41235D01*
X90696Y41866D01*
X90281Y42407D01*
X89740Y42822D01*
X89109Y43083D01*
X88433Y43172D01*
D02*
G37*
G36*
X139000Y43855D02*
X138968Y43851D01*
X138007Y43453D01*
X137181Y42819D01*
X136547Y41993D01*
X136149Y41032D01*
X136145Y41000D01*
X139000D01*
Y43855D01*
D02*
G37*
G36*
X110900Y50283D02*
X110868Y50279D01*
X109907Y49881D01*
X109081Y49247D01*
X108447Y48421D01*
X108049Y47460D01*
X108045Y47428D01*
X110900D01*
Y50283D01*
D02*
G37*
G36*
X112900Y50283D02*
Y47428D01*
X115755D01*
X115751Y47460D01*
X115353Y48421D01*
X114719Y49247D01*
X113893Y49881D01*
X112932Y50279D01*
X112900Y50283D01*
D02*
G37*
G36*
X80933Y48172D02*
X80257Y48083D01*
X79627Y47822D01*
X79085Y47407D01*
X78670Y46866D01*
X78409Y46235D01*
X78320Y45559D01*
X78409Y44883D01*
X78670Y44253D01*
X79085Y43712D01*
X79627Y43296D01*
X80257Y43035D01*
X80933Y42946D01*
X81609Y43035D01*
X82240Y43296D01*
X82781Y43712D01*
X83196Y44253D01*
X83457Y44883D01*
X83546Y45559D01*
X83457Y46235D01*
X83196Y46866D01*
X82781Y47407D01*
X82240Y47822D01*
X81609Y48083D01*
X80933Y48172D01*
D02*
G37*
G36*
X115755Y45428D02*
X112900D01*
Y42573D01*
X112932Y42577D01*
X113893Y42975D01*
X114719Y43609D01*
X115353Y44434D01*
X115751Y45396D01*
X115755Y45428D01*
D02*
G37*
G36*
X65185Y48172D02*
X64509Y48083D01*
X63879Y47822D01*
X63337Y47407D01*
X62922Y46866D01*
X62661Y46235D01*
X62572Y45559D01*
X62661Y44883D01*
X62922Y44253D01*
X63337Y43712D01*
X63879Y43296D01*
X64509Y43035D01*
X65185Y42946D01*
X65861Y43035D01*
X66491Y43296D01*
X67033Y43712D01*
X67448Y44253D01*
X67709Y44883D01*
X67798Y45559D01*
X67709Y46235D01*
X67448Y46866D01*
X67033Y47407D01*
X66491Y47822D01*
X65861Y48083D01*
X65185Y48172D01*
D02*
G37*
G36*
X71575Y24085D02*
X70898Y23996D01*
X70268Y23735D01*
X69727Y23320D01*
X69312Y22779D01*
X69051Y22149D01*
X68962Y21472D01*
X69051Y20796D01*
X69312Y20166D01*
X69727Y19625D01*
X70268Y19210D01*
X70898Y18948D01*
X71575Y18859D01*
X72251Y18948D01*
X72881Y19210D01*
X73422Y19625D01*
X73838Y20166D01*
X74099Y20796D01*
X74188Y21472D01*
X74099Y22149D01*
X73838Y22779D01*
X73422Y23320D01*
X72881Y23735D01*
X72251Y23996D01*
X71575Y24085D01*
D02*
G37*
G36*
X18000Y27745D02*
X17103Y27567D01*
X16342Y27058D01*
X15833Y26297D01*
X15655Y25400D01*
X15833Y24503D01*
X16342Y23742D01*
X17103Y23233D01*
X18000Y23055D01*
X18897Y23233D01*
X19658Y23742D01*
X20167Y24503D01*
X20345Y25400D01*
X20167Y26297D01*
X19658Y27058D01*
X18897Y27567D01*
X18000Y27745D01*
D02*
G37*
G36*
X55827Y24085D02*
X55151Y23996D01*
X54520Y23735D01*
X53979Y23320D01*
X53564Y22779D01*
X53303Y22149D01*
X53214Y21472D01*
X53303Y20796D01*
X53564Y20166D01*
X53979Y19625D01*
X54520Y19210D01*
X55151Y18948D01*
X55827Y18859D01*
X56503Y18948D01*
X57133Y19210D01*
X57674Y19625D01*
X58090Y20166D01*
X58351Y20796D01*
X58440Y21472D01*
X58351Y22149D01*
X58090Y22779D01*
X57674Y23320D01*
X57133Y23735D01*
X56503Y23996D01*
X55827Y24085D01*
D02*
G37*
G36*
X78327Y14085D02*
X77650Y13996D01*
X77020Y13735D01*
X76479Y13320D01*
X76064Y12779D01*
X75803Y12149D01*
X75714Y11472D01*
X75803Y10796D01*
X76064Y10166D01*
X76479Y9625D01*
X77020Y9210D01*
X77650Y8948D01*
X78327Y8860D01*
X79003Y8948D01*
X79633Y9210D01*
X80174Y9625D01*
X80590Y10166D01*
X80851Y10796D01*
X80940Y11472D01*
X80851Y12149D01*
X80590Y12779D01*
X80174Y13320D01*
X79633Y13735D01*
X79003Y13996D01*
X78327Y14085D01*
D02*
G37*
G36*
X63327Y19085D02*
X62651Y18996D01*
X62020Y18735D01*
X61479Y18320D01*
X61064Y17779D01*
X60803Y17149D01*
X60714Y16472D01*
X60803Y15796D01*
X61064Y15166D01*
X61479Y14625D01*
X62020Y14210D01*
X62651Y13949D01*
X63327Y13859D01*
X64003Y13949D01*
X64633Y14210D01*
X65174Y14625D01*
X65590Y15166D01*
X65851Y15796D01*
X65940Y16472D01*
X65851Y17149D01*
X65590Y17779D01*
X65174Y18320D01*
X64633Y18735D01*
X64003Y18996D01*
X63327Y19085D01*
D02*
G37*
G36*
X139000Y39000D02*
X136145D01*
X136149Y38968D01*
X136547Y38007D01*
X137181Y37181D01*
X138007Y36547D01*
X138968Y36149D01*
X139000Y36145D01*
Y39000D01*
D02*
G37*
G36*
X72685Y43172D02*
X72009Y43083D01*
X71378Y42822D01*
X70837Y42407D01*
X70422Y41866D01*
X70161Y41235D01*
X70072Y40559D01*
X70161Y39883D01*
X70422Y39253D01*
X70837Y38712D01*
X71378Y38296D01*
X72009Y38035D01*
X72685Y37946D01*
X73361Y38035D01*
X73991Y38296D01*
X74533Y38712D01*
X74948Y39253D01*
X75209Y39883D01*
X75298Y40559D01*
X75209Y41235D01*
X74948Y41866D01*
X74533Y42407D01*
X73991Y42822D01*
X73361Y43083D01*
X72685Y43172D01*
D02*
G37*
G36*
X3855Y39000D02*
X1000D01*
Y36145D01*
X1032Y36149D01*
X1993Y36547D01*
X2819Y37181D01*
X3453Y38007D01*
X3851Y38968D01*
X3855Y39000D01*
D02*
G37*
G36*
X65185Y38172D02*
X64509Y38083D01*
X63879Y37822D01*
X63337Y37407D01*
X62922Y36866D01*
X62661Y36235D01*
X62572Y35559D01*
X62661Y34883D01*
X62922Y34253D01*
X63337Y33711D01*
X63879Y33296D01*
X64509Y33035D01*
X65185Y32946D01*
X65861Y33035D01*
X66491Y33296D01*
X67033Y33711D01*
X67448Y34253D01*
X67709Y34883D01*
X67798Y35559D01*
X67709Y36235D01*
X67448Y36866D01*
X67033Y37407D01*
X66491Y37822D01*
X65861Y38083D01*
X65185Y38172D01*
D02*
G37*
G36*
X80933D02*
X80257Y38083D01*
X79627Y37822D01*
X79085Y37407D01*
X78670Y36866D01*
X78409Y36235D01*
X78320Y35559D01*
X78409Y34883D01*
X78670Y34253D01*
X79085Y33711D01*
X79627Y33296D01*
X80257Y33035D01*
X80933Y32946D01*
X81609Y33035D01*
X82240Y33296D01*
X82781Y33711D01*
X83196Y34253D01*
X83457Y34883D01*
X83546Y35559D01*
X83457Y36235D01*
X83196Y36866D01*
X82781Y37407D01*
X82240Y37822D01*
X81609Y38083D01*
X80933Y38172D01*
D02*
G37*
%LPD*%
D20*
X45000Y5000D02*
X94485D01*
X0Y-40000D02*
X45000Y5000D01*
X94485D02*
X98485Y1000D01*
X99000D01*
X0Y-40000D02*
X1654D01*
D23*
X140000Y-10000D02*
D03*
Y-40000D02*
D03*
X111900Y46428D02*
D03*
X121900D02*
D03*
X0Y0D02*
D03*
Y10000D02*
D03*
Y20000D02*
D03*
Y30000D02*
D03*
X140000Y-20000D02*
D03*
Y-30000D02*
D03*
X0Y-40000D02*
D03*
Y-30000D02*
D03*
Y-20000D02*
D03*
Y-10000D02*
D03*
Y40000D02*
D03*
Y50000D02*
D03*
X140000Y40000D02*
D03*
Y50000D02*
D03*
D24*
Y0D02*
D03*
Y10000D02*
D03*
Y20000D02*
D03*
Y30000D02*
D03*
D25*
X126300Y14200D02*
D03*
X124100Y-15100D02*
D03*
X125000Y-25500D02*
D03*
X11900Y25000D02*
D03*
Y34500D02*
D03*
X12600Y5000D02*
D03*
X20600Y-2700D02*
D03*
X10600Y-5100D02*
D03*
X23900Y-39900D02*
D03*
X10000Y-39600D02*
D03*
X33200Y-15100D02*
D03*
X23000Y-24400D02*
D03*
X17300Y-35200D02*
D03*
X22500Y45300D02*
D03*
X17700Y43100D02*
D03*
X17300Y30600D02*
D03*
X117900Y5300D02*
D03*
X106800Y51934D02*
D03*
X103300D02*
D03*
X99800D02*
D03*
D26*
X18000Y25400D02*
D03*
X99000Y1000D02*
D03*
D27*
X118300Y8600D02*
D03*
D28*
X36331Y5000D02*
D03*
X81024Y-24591D02*
D03*
X65276D02*
D03*
X71575Y11472D02*
D03*
X78327D02*
D03*
X63327Y16472D02*
D03*
X55827Y21472D02*
D03*
X102776Y8509D02*
D03*
X55827Y11472D02*
D03*
X71575Y21472D02*
D03*
X55827Y-11472D02*
D03*
X71575D02*
D03*
X78327Y-1472D02*
D03*
X63327Y-6472D02*
D03*
X71575Y-1472D02*
D03*
X55827D02*
D03*
X88433Y40559D02*
D03*
X72685D02*
D03*
X80933Y45559D02*
D03*
X65185D02*
D03*
X65276Y-34591D02*
D03*
X81024D02*
D03*
X72776Y-29591D02*
D03*
X88524D02*
D03*
X99776Y5109D02*
D03*
X65185Y35559D02*
D03*
X80933D02*
D03*
X27654Y18500D02*
D03*
X32232Y5000D02*
D03*
X98150Y19173D02*
D03*
X33094Y-31000D02*
D03*
Y-35000D02*
D03*
Y-39000D02*
D03*
Y41385D02*
D03*
Y45386D02*
D03*
Y49385D02*
D03*
D29*
X119710Y27038D02*
D03*
X113594Y-35474D02*
D03*
X109594D02*
D03*
X33327Y-24165D02*
D03*
Y33528D02*
D03*
X122505Y25400D02*
D03*
M02*
