G04 Layer_Color=65535*
%FSLAX25Y25*%
%MOIN*%
G70*
G01*
G75*
%ADD30C,0.01968*%
%ADD31C,0.00551*%
%ADD32C,0.00787*%
%ADD33C,0.01181*%
%ADD34C,0.00500*%
%ADD35C,0.00700*%
G36*
X115900Y46428D02*
X115400Y46428D01*
X115400Y46428D01*
X115900D01*
X115900Y37484D01*
X115082Y37575D01*
X113506Y38052D01*
X112043Y38807D01*
X110741Y39814D01*
X109643Y41041D01*
X108786Y42447D01*
X108199Y43986D01*
X107900Y45605D01*
X107900Y46428D01*
X107900Y46428D01*
X107900Y47251D01*
X108199Y48870D01*
X108786Y50408D01*
X109643Y51814D01*
X110741Y53041D01*
X112043Y54049D01*
X113506Y54804D01*
X115082Y55281D01*
X115900Y55372D01*
X115900Y46428D01*
D02*
G37*
G36*
Y55372D02*
X115900D01*
Y55372D01*
X115900Y55372D01*
D02*
G37*
%LPC*%
G36*
X111900Y49928D02*
X111557Y49911D01*
X110884Y49777D01*
X110250Y49515D01*
X109680Y49133D01*
X109195Y48648D01*
X108813Y48078D01*
X108551Y47444D01*
X108417Y46771D01*
X108400Y46428D01*
X108417Y46085D01*
X108551Y45412D01*
X108813Y44778D01*
X109195Y44208D01*
X109680Y43722D01*
X110250Y43341D01*
X110884Y43079D01*
X111557Y42945D01*
X111900Y42928D01*
X112243Y42945D01*
X112916Y43079D01*
X113550Y43341D01*
X114120Y43722D01*
X114605Y44208D01*
X114987Y44778D01*
X115249Y45412D01*
X115383Y46085D01*
X115400Y46428D01*
X115383Y46771D01*
X115249Y47444D01*
X114987Y48078D01*
X114605Y48648D01*
X114120Y49133D01*
X113550Y49515D01*
X112916Y49777D01*
X112243Y49911D01*
X111900Y49928D01*
D02*
G37*
%LPD*%
D30*
X90472Y26850D02*
G03*
X90472Y26850I-394J0D01*
G01*
D31*
X125914Y46428D02*
G03*
X125914Y46428I-9014J0D01*
G01*
D32*
X145000Y-15000D02*
Y-5000D01*
X135000Y-15000D02*
X145000D01*
X135000D02*
Y-5000D01*
X145000D01*
Y-45000D02*
Y-35000D01*
X135000Y-45000D02*
X145000D01*
X135000D02*
Y-35000D01*
X145000D01*
X89685Y-14685D02*
Y-13110D01*
X88110Y-14685D02*
X89685D01*
X50315Y23110D02*
Y24685D01*
X51890D01*
X50315Y-14685D02*
X51890D01*
X50315D02*
Y-13110D01*
X88110Y24685D02*
X89685D01*
Y23110D02*
Y24685D01*
X135000Y15000D02*
X145000D01*
X135000Y-5000D02*
Y15000D01*
Y-5000D02*
X145000D01*
Y15000D01*
X135000Y35000D02*
X145000D01*
X135000Y15000D02*
Y35000D01*
Y15000D02*
X145000D01*
Y35000D01*
X-5000D02*
X5000D01*
Y-5000D02*
Y35000D01*
X-5000Y-5000D02*
Y35000D01*
Y-5000D02*
X5000D01*
X135000Y-35000D02*
X145000D01*
Y-15000D01*
X135000D02*
X145000D01*
X135000Y-35000D02*
Y-15000D01*
X-5000Y-5000D02*
X5000D01*
Y-45000D02*
Y-5000D01*
X-5000Y-45000D02*
Y-5000D01*
Y-45000D02*
X5000D01*
X-5000Y55000D02*
X5000D01*
X-5000Y35000D02*
Y55000D01*
Y35000D02*
X5000D01*
Y55000D01*
X135000D02*
X145000D01*
X135000Y35000D02*
Y55000D01*
Y35000D02*
X145000D01*
Y55000D01*
D33*
X111900Y31928D02*
Y36928D01*
X121900Y31928D02*
Y36928D01*
X119400Y34428D02*
X124400D01*
D34*
X97901Y-1301D02*
X97401Y-1801D01*
Y-2800D01*
X97901Y-3300D01*
X99900D01*
X100400Y-2800D01*
Y-1801D01*
X99900Y-1301D01*
X97401Y-301D02*
Y1698D01*
X97901D01*
X99900Y-301D01*
X100400D01*
X115501Y33227D02*
X115001Y32727D01*
Y31728D01*
X115501Y31228D01*
X117500D01*
X118000Y31728D01*
Y32727D01*
X117500Y33227D01*
X118000Y35726D02*
X115001D01*
X116500Y34227D01*
Y36226D01*
X117501Y-5201D02*
X117001Y-5700D01*
Y-6700D01*
X117501Y-7200D01*
X119500D01*
X120000Y-6700D01*
Y-5700D01*
X119500Y-5201D01*
X120000Y-4201D02*
Y-3201D01*
Y-3701D01*
X117001D01*
X117501Y-4201D01*
Y-1702D02*
X117001Y-1202D01*
Y-202D01*
X117501Y298D01*
X119500D01*
X120000Y-202D01*
Y-1202D01*
X119500Y-1702D01*
X117501D01*
X95901Y41006D02*
X95401Y40506D01*
Y39507D01*
X95901Y39007D01*
X97900D01*
X98400Y39507D01*
Y40506D01*
X97900Y41006D01*
X95901Y42006D02*
X95401Y42505D01*
Y43505D01*
X95901Y44005D01*
X96401D01*
X96900Y43505D01*
X97400Y44005D01*
X97900D01*
X98400Y43505D01*
Y42505D01*
X97900Y42006D01*
X97400D01*
X96900Y42505D01*
X96401Y42006D01*
X95901D01*
X96900Y42505D02*
Y43505D01*
X51800Y-25800D02*
X48801D01*
Y-24300D01*
X49301Y-23801D01*
X50301D01*
X50800Y-24300D01*
Y-25800D01*
Y-24800D02*
X51800Y-23801D01*
Y-20802D02*
Y-22801D01*
X49801Y-20802D01*
X49301D01*
X48801Y-21301D01*
Y-22301D01*
X49301Y-22801D01*
X35999Y13401D02*
X35500Y13901D01*
X34500D01*
X34000Y13401D01*
Y11401D01*
X34500Y10902D01*
X35500D01*
X35999Y11401D01*
X36999Y10902D02*
X37999D01*
X37499D01*
Y13901D01*
X36999Y13401D01*
X94301Y-17701D02*
X93801Y-18201D01*
Y-19200D01*
X94301Y-19700D01*
X96300D01*
X96800Y-19200D01*
Y-18201D01*
X96300Y-17701D01*
X96800Y-14702D02*
Y-16701D01*
X94801Y-14702D01*
X94301D01*
X93801Y-15201D01*
Y-16201D01*
X94301Y-16701D01*
X109699Y14299D02*
X109200Y14799D01*
X108200D01*
X107700Y14299D01*
Y12300D01*
X108200Y11800D01*
X109200D01*
X109699Y12300D01*
X110699Y14299D02*
X111199Y14799D01*
X112199D01*
X112698Y14299D01*
Y13799D01*
X112199Y13299D01*
X111699D01*
X112199D01*
X112698Y12800D01*
Y12300D01*
X112199Y11800D01*
X111199D01*
X110699Y12300D01*
X32501Y27615D02*
X32001Y27115D01*
Y26115D01*
X32501Y25616D01*
X34500D01*
X35000Y26115D01*
Y27115D01*
X34500Y27615D01*
X32001Y30614D02*
Y28615D01*
X33500D01*
X33001Y29614D01*
Y30114D01*
X33500Y30614D01*
X34500D01*
X35000Y30114D01*
Y29114D01*
X34500Y28615D01*
X38401Y-11401D02*
X37901Y-11901D01*
Y-12900D01*
X38401Y-13400D01*
X40400D01*
X40900Y-12900D01*
Y-11901D01*
X40400Y-11401D01*
X37901Y-8402D02*
X38401Y-9401D01*
X39401Y-10401D01*
X40400D01*
X40900Y-9901D01*
Y-8901D01*
X40400Y-8402D01*
X39900D01*
X39401Y-8901D01*
Y-10401D01*
X108699Y21299D02*
X108200Y21799D01*
X107200D01*
X106700Y21299D01*
Y19300D01*
X107200Y18800D01*
X108200D01*
X108699Y19300D01*
X109699D02*
X110199Y18800D01*
X111199D01*
X111698Y19300D01*
Y21299D01*
X111199Y21799D01*
X110199D01*
X109699Y21299D01*
Y20799D01*
X110199Y20300D01*
X111698D01*
X104344Y-25301D02*
X103844Y-25800D01*
Y-26800D01*
X104344Y-27300D01*
X106343D01*
X106843Y-26800D01*
Y-25800D01*
X106343Y-25301D01*
X106843Y-24301D02*
Y-23301D01*
Y-23801D01*
X103844D01*
X104344Y-24301D01*
X106843Y-21802D02*
Y-20802D01*
Y-21302D01*
X103844D01*
X104344Y-21802D01*
X88800Y32299D02*
X89800D01*
X89300D01*
Y29300D01*
X88800D01*
X89800D01*
X93299Y31799D02*
X92799Y32299D01*
X91799D01*
X91299Y31799D01*
Y29800D01*
X91799Y29300D01*
X92799D01*
X93299Y29800D01*
X94298Y29300D02*
X95298D01*
X94798D01*
Y32299D01*
X94298Y31799D01*
X51800Y30615D02*
X48801D01*
Y32115D01*
X49301Y32615D01*
X50301D01*
X50800Y32115D01*
Y30615D01*
Y31615D02*
X51800Y32615D01*
Y33615D02*
Y34614D01*
Y34114D01*
X48801D01*
X49301Y33615D01*
X57300Y42900D02*
X54301D01*
Y44399D01*
X54801Y44899D01*
X55800D01*
X56300Y44399D01*
Y42900D01*
Y43900D02*
X57300Y44899D01*
X54801Y45899D02*
X54301Y46399D01*
Y47399D01*
X54801Y47898D01*
X55301D01*
X55800Y47399D01*
Y46899D01*
Y47399D01*
X56300Y47898D01*
X56800D01*
X57300Y47399D01*
Y46399D01*
X56800Y45899D01*
X56800Y-37500D02*
X53801D01*
Y-36000D01*
X54301Y-35501D01*
X55300D01*
X55800Y-36000D01*
Y-37500D01*
Y-36500D02*
X56800Y-35501D01*
Y-33001D02*
X53801D01*
X55300Y-34501D01*
Y-32502D01*
X26501Y37065D02*
X29500D01*
Y38565D01*
X29000Y39064D01*
X27001D01*
X26501Y38565D01*
Y37065D01*
X29500Y40064D02*
Y41064D01*
Y40564D01*
X26501D01*
X27001Y40064D01*
X29628Y21162D02*
X26629D01*
Y22662D01*
X27129Y23162D01*
X28129D01*
X28629Y22662D01*
Y21162D01*
Y22162D02*
X29628Y23162D01*
X26629Y26161D02*
Y24161D01*
X28129D01*
X27629Y25161D01*
Y25661D01*
X28129Y26161D01*
X29128D01*
X29628Y25661D01*
Y24661D01*
X29128Y24161D01*
D35*
X126633Y39065D02*
X126049Y39648D01*
X124883D01*
X124300Y39065D01*
Y36732D01*
X124883Y36149D01*
X126049D01*
X126633Y36732D01*
Y37898D01*
X125466D01*
X127799Y36149D02*
Y39648D01*
X130131Y36149D01*
Y39648D01*
X131298D02*
Y36149D01*
X133047D01*
X133630Y36732D01*
Y39065D01*
X133047Y39648D01*
X131298D01*
X60276Y-37495D02*
X62608D01*
X61442D01*
Y-40994D01*
X63774D02*
Y-37495D01*
X64941Y-38662D01*
X66107Y-37495D01*
Y-40994D01*
X69606Y-38078D02*
X69023Y-37495D01*
X67856D01*
X67273Y-38078D01*
Y-40411D01*
X67856Y-40994D01*
X69023D01*
X69606Y-40411D01*
X73105Y-40994D02*
X70772D01*
X73105Y-38662D01*
Y-38078D01*
X72522Y-37495D01*
X71355D01*
X70772Y-38078D01*
X76604Y-37495D02*
X75437Y-38078D01*
X74271Y-39245D01*
Y-40411D01*
X74854Y-40994D01*
X76020D01*
X76604Y-40411D01*
Y-39828D01*
X76020Y-39245D01*
X74271D01*
X80102Y-37495D02*
X78936Y-38078D01*
X77770Y-39245D01*
Y-40411D01*
X78353Y-40994D01*
X79519D01*
X80102Y-40411D01*
Y-39828D01*
X79519Y-39245D01*
X77770D01*
X81269Y-38078D02*
X81852Y-37495D01*
X83018D01*
X83601Y-38078D01*
Y-40411D01*
X83018Y-40994D01*
X81852D01*
X81269Y-40411D01*
Y-38078D01*
X84768Y-41577D02*
X87100D01*
X88266Y-37495D02*
Y-40994D01*
X90016D01*
X90599Y-40411D01*
Y-39828D01*
X90016Y-39245D01*
X88266D01*
X90016D01*
X90599Y-38662D01*
Y-38078D01*
X90016Y-37495D01*
X88266D01*
X93515D02*
X92348D01*
X91765Y-38078D01*
Y-40411D01*
X92348Y-40994D01*
X93515D01*
X94098Y-40411D01*
Y-38078D01*
X93515Y-37495D01*
X95264D02*
Y-40994D01*
X97014D01*
X97597Y-40411D01*
Y-39828D01*
X97014Y-39245D01*
X95264D01*
X97014D01*
X97597Y-38662D01*
Y-38078D01*
X97014Y-37495D01*
X95264D01*
X98763Y-41577D02*
X101096D01*
X102262Y-37495D02*
Y-39828D01*
X103428Y-40994D01*
X104595Y-39828D01*
Y-37495D01*
X105761Y-40994D02*
X106927D01*
X106344D01*
Y-37495D01*
X105761Y-38078D01*
X108677Y-40994D02*
Y-40411D01*
X109260D01*
Y-40994D01*
X108677D01*
X113925D02*
X111592D01*
X113925Y-38662D01*
Y-38078D01*
X113342Y-37495D01*
X112175D01*
X111592Y-38078D01*
X124666Y-8668D02*
X123999Y-8001D01*
X122667D01*
X122000Y-8668D01*
Y-11333D01*
X122667Y-12000D01*
X123999D01*
X124666Y-11333D01*
Y-10001D01*
X123333D01*
X125999Y-12000D02*
Y-8001D01*
X128665Y-12000D01*
Y-8001D01*
X129997D02*
Y-12000D01*
X131997D01*
X132663Y-11333D01*
Y-8668D01*
X131997Y-8001D01*
X129997D01*
X122667Y-28001D02*
Y-31999D01*
X124666D01*
X125332Y-31333D01*
Y-28667D01*
X124666Y-28001D01*
X122667D01*
X126665D02*
X127998D01*
X127332D01*
Y-31999D01*
X126665D01*
X127998D01*
X129997D02*
Y-28001D01*
X131997D01*
X132663Y-28667D01*
Y-30000D01*
X131997Y-30666D01*
X129997D01*
X131330D02*
X132663Y-31999D01*
X120667Y-18668D02*
X120001Y-18001D01*
X118668D01*
X118001Y-18668D01*
Y-19334D01*
X118668Y-20001D01*
X120001D01*
X120667Y-20667D01*
Y-21334D01*
X120001Y-22000D01*
X118668D01*
X118001Y-21334D01*
X122000Y-18001D02*
X124666D01*
X123333D01*
Y-22000D01*
X128665Y-18001D02*
X125999D01*
Y-22000D01*
X128665D01*
X125999Y-20001D02*
X127332D01*
X129997Y-22000D02*
Y-18001D01*
X131997D01*
X132663Y-18668D01*
Y-20001D01*
X131997Y-20667D01*
X129997D01*
X7500Y-17801D02*
Y-21100D01*
X9149D01*
X9699Y-20550D01*
Y-18351D01*
X9149Y-17801D01*
X7500D01*
X10799Y-21100D02*
Y-17801D01*
X12448D01*
X12998Y-18351D01*
Y-19451D01*
X12448Y-20000D01*
X10799D01*
X11899D02*
X12998Y-21100D01*
X14098Y-17801D02*
Y-20000D01*
X15198Y-21100D01*
X16297Y-20000D01*
Y-17801D01*
X17397Y-21650D02*
X19596D01*
X22895Y-17801D02*
X20696D01*
Y-21100D01*
X22895D01*
X20696Y-19451D02*
X21795D01*
X23995Y-21100D02*
Y-17801D01*
X26194Y-21100D01*
Y-17801D01*
X27294Y-21100D02*
Y-17801D01*
X29493Y-21100D01*
Y-17801D01*
X10166Y11333D02*
X9499Y11999D01*
X8167D01*
X7500Y11333D01*
Y10667D01*
X8167Y10000D01*
X9499D01*
X10166Y9334D01*
Y8667D01*
X9499Y8001D01*
X8167D01*
X7500Y8667D01*
X14164Y11333D02*
X13498Y11999D01*
X12165D01*
X11499Y11333D01*
Y8667D01*
X12165Y8001D01*
X13498D01*
X14164Y8667D01*
X15497Y11999D02*
Y8001D01*
Y9334D01*
X18163Y11999D01*
X16164Y10000D01*
X18163Y8001D01*
X10166Y31333D02*
X9499Y31999D01*
X8167D01*
X7500Y31333D01*
Y30666D01*
X8167Y30000D01*
X9499D01*
X10166Y29334D01*
Y28667D01*
X9499Y28001D01*
X8167D01*
X7500Y28667D01*
X11499Y31999D02*
Y28001D01*
X13498D01*
X14164Y28667D01*
Y31333D01*
X13498Y31999D01*
X11499D01*
X17497D02*
X16164D01*
X15497Y31333D01*
Y28667D01*
X16164Y28001D01*
X17497D01*
X18163Y28667D01*
Y31333D01*
X17497Y31999D01*
X10166Y-38667D02*
X9499Y-38001D01*
X8167D01*
X7500Y-38667D01*
Y-39334D01*
X8167Y-40000D01*
X9499D01*
X10166Y-40666D01*
Y-41333D01*
X9499Y-41999D01*
X8167D01*
X7500Y-41333D01*
X14164Y-38667D02*
X13498Y-38001D01*
X12165D01*
X11499Y-38667D01*
Y-41333D01*
X12165Y-41999D01*
X13498D01*
X14164Y-41333D01*
Y-40000D01*
X12832D01*
X15497Y-42666D02*
X18163D01*
X19496Y-38001D02*
X22162D01*
X20829D01*
Y-41999D01*
X26161Y-38667D02*
X25494Y-38001D01*
X24161D01*
X23495Y-38667D01*
Y-39334D01*
X24161Y-40000D01*
X25494D01*
X26161Y-40666D01*
Y-41333D01*
X25494Y-41999D01*
X24161D01*
X23495Y-41333D01*
X27494Y-38001D02*
X30159D01*
X28826D01*
Y-41999D01*
X10166Y-8668D02*
X9499Y-8001D01*
X8167D01*
X7500Y-8668D01*
Y-11333D01*
X8167Y-12000D01*
X9499D01*
X10166Y-11333D01*
Y-10001D01*
X8833D01*
X11499Y-12000D02*
Y-8001D01*
X14164Y-12000D01*
Y-8001D01*
X15497D02*
Y-12000D01*
X17497D01*
X18163Y-11333D01*
Y-8668D01*
X17497Y-8001D01*
X15497D01*
X10166Y21333D02*
X9499Y21999D01*
X8167D01*
X7500Y21333D01*
Y20666D01*
X8167Y20000D01*
X9499D01*
X10166Y19333D01*
Y18667D01*
X9499Y18001D01*
X8167D01*
X7500Y18667D01*
X11499Y21999D02*
Y18001D01*
X13498D01*
X14164Y18667D01*
Y21333D01*
X13498Y21999D01*
X11499D01*
X15497D02*
X16830D01*
X16164D01*
Y18001D01*
X15497D01*
X16830D01*
X10166Y1333D02*
X9499Y1999D01*
X8167D01*
X7500Y1333D01*
Y-1333D01*
X8167Y-1999D01*
X9499D01*
X10166Y-1333D01*
X14164Y1333D02*
X13498Y1999D01*
X12165D01*
X11499Y1333D01*
Y667D01*
X12165Y0D01*
X13498D01*
X14164Y-667D01*
Y-1333D01*
X13498Y-1999D01*
X12165D01*
X11499Y-1333D01*
X15497Y-1999D02*
Y1999D01*
X18163Y-1999D01*
Y1999D01*
X10166Y-28668D02*
X9499Y-28001D01*
X8167D01*
X7500Y-28668D01*
Y-31334D01*
X8167Y-32000D01*
X9499D01*
X10166Y-31334D01*
X11499Y-28001D02*
Y-32000D01*
X14164D01*
X15497Y-28001D02*
Y-32000D01*
Y-30667D01*
X18163Y-28001D01*
X16164Y-30001D01*
X18163Y-32000D01*
X19496D02*
X20829D01*
X20163D01*
Y-28001D01*
X19496Y-28668D01*
X25494Y-28001D02*
X24161Y-28668D01*
X22828Y-30001D01*
Y-31334D01*
X23495Y-32000D01*
X24828D01*
X25494Y-31334D01*
Y-30667D01*
X24828Y-30001D01*
X22828D01*
X10166Y40742D02*
X9499Y41408D01*
X8167D01*
X7500Y40742D01*
Y38076D01*
X8167Y37409D01*
X9499D01*
X10166Y38076D01*
Y39409D01*
X8833D01*
X11499Y37409D02*
Y41408D01*
X14164Y37409D01*
Y41408D01*
X15497D02*
Y37409D01*
X17497D01*
X18163Y38076D01*
Y40742D01*
X17497Y41408D01*
X15497D01*
X124666Y-38668D02*
X123999Y-38001D01*
X122667D01*
X122000Y-38668D01*
Y-41334D01*
X122667Y-42000D01*
X123999D01*
X124666Y-41334D01*
Y-40001D01*
X123333D01*
X125999Y-42000D02*
Y-38001D01*
X128665Y-42000D01*
Y-38001D01*
X129997D02*
Y-42000D01*
X131997D01*
X132663Y-41334D01*
Y-38668D01*
X131997Y-38001D01*
X129997D01*
X7500Y51408D02*
Y48742D01*
X8833Y47409D01*
X10166Y48742D01*
Y51408D01*
X14164Y50742D02*
X13498Y51408D01*
X12165D01*
X11499Y50742D01*
Y48076D01*
X12165Y47409D01*
X13498D01*
X14164Y48076D01*
X18163Y50742D02*
X17497Y51408D01*
X16164D01*
X15497Y50742D01*
Y48076D01*
X16164Y47409D01*
X17497D01*
X18163Y48076D01*
X19496Y46743D02*
X22162D01*
X23495Y51408D02*
X24828D01*
X24161D01*
Y47409D01*
X23495D01*
X24828D01*
X28826Y51408D02*
X27494D01*
X26827Y50742D01*
Y48076D01*
X27494Y47409D01*
X28826D01*
X29493Y48076D01*
Y50742D01*
X28826Y51408D01*
X125999Y18000D02*
Y20666D01*
X127332Y21999D01*
X128665Y20666D01*
Y18000D01*
Y19999D01*
X125999D01*
X132663Y18000D02*
X129997D01*
X132663Y20666D01*
Y21332D01*
X131997Y21999D01*
X130664D01*
X129997Y21332D01*
X127332Y28000D02*
Y30666D01*
X128665Y31999D01*
X129997Y30666D01*
Y28000D01*
Y29999D01*
X127332D01*
X131330Y28000D02*
X132663D01*
X131997D01*
Y31999D01*
X131330Y31332D01*
X125999Y1999D02*
Y-2000D01*
X127998D01*
X128665Y-1333D01*
Y-667D01*
X127998Y-1D01*
X125999D01*
X127998D01*
X128665Y666D01*
Y1332D01*
X127998Y1999D01*
X125999D01*
X132663Y-2000D02*
X129997D01*
X132663Y666D01*
Y1332D01*
X131997Y1999D01*
X130664D01*
X129997Y1332D01*
X127332Y11999D02*
Y8000D01*
X129331D01*
X129997Y8666D01*
Y9333D01*
X129331Y9999D01*
X127332D01*
X129331D01*
X129997Y10666D01*
Y11332D01*
X129331Y11999D01*
X127332D01*
X131330Y8000D02*
X132663D01*
X131997D01*
Y11999D01*
X131330Y11332D01*
X127700Y51749D02*
Y49417D01*
X128866Y48251D01*
X130033Y49417D01*
Y51749D01*
X133531Y51166D02*
X132948Y51749D01*
X131782D01*
X131199Y51166D01*
Y50583D01*
X131782Y50000D01*
X132948D01*
X133531Y49417D01*
Y48834D01*
X132948Y48251D01*
X131782D01*
X131199Y48834D01*
M02*
