G04 Layer_Physical_Order=1*
G04 Layer_Color=255*
%FSLAX25Y25*%
%MOIN*%
G70*
G01*
G75*
%ADD10R,0.04331X0.03937*%
%ADD11R,0.04331X0.07087*%
%ADD12R,0.06299X0.02205*%
%ADD13R,0.02205X0.06299*%
%ADD14R,0.05354X0.06299*%
%ADD15R,0.07087X0.04331*%
%ADD16R,0.03937X0.04331*%
%ADD17R,0.03150X0.03150*%
%ADD18C,0.02000*%
%ADD19C,0.02500*%
%ADD20C,0.01200*%
%ADD21C,0.01000*%
%ADD22C,0.05000*%
%ADD23C,0.05905*%
%ADD24C,0.06299*%
%ADD25C,0.02400*%
%ADD26C,0.02200*%
%ADD27C,0.02780*%
%ADD28C,0.02781*%
%ADD29C,0.02981*%
G36*
X-2094Y26373D02*
X-1084Y25954D01*
X0Y25811D01*
X1084Y25954D01*
X1343Y26061D01*
X13770Y13634D01*
X13563Y13135D01*
X9461D01*
X3939Y18657D01*
X4046Y18916D01*
X4189Y20000D01*
X4046Y21084D01*
X3627Y22094D01*
X2962Y22962D01*
X2094Y23627D01*
X1084Y24046D01*
X0Y24189D01*
X-1084Y24046D01*
X-2094Y23627D01*
X-2691Y23170D01*
X-3190Y23416D01*
Y26583D01*
X-2691Y26830D01*
X-2094Y26373D01*
D02*
G37*
G36*
X53268Y24882D02*
X57410D01*
X57565Y24102D01*
X58007Y23440D01*
X58669Y22998D01*
X59449Y22843D01*
X61654D01*
X62126Y22937D01*
X62598Y22843D01*
X67953D01*
X68733Y22998D01*
X69395Y23440D01*
X69837Y24102D01*
X69992Y24882D01*
X73158D01*
X73273Y24300D01*
Y23386D01*
X73376Y22603D01*
X73679Y21873D01*
X74134Y21280D01*
Y16166D01*
X74164Y15861D01*
X74398Y15296D01*
X74830Y14864D01*
X75394Y14630D01*
X75700Y14600D01*
X81100Y14600D01*
X81100Y6137D01*
X81000Y6055D01*
X52100Y6055D01*
Y6759D01*
X52157Y7047D01*
Y9252D01*
X52100Y9540D01*
Y9909D01*
X52157Y10197D01*
Y12402D01*
X52100Y12690D01*
Y13058D01*
X52157Y13347D01*
Y15551D01*
X52100Y15839D01*
Y16208D01*
X52157Y16496D01*
Y18701D01*
X52100Y18989D01*
Y19358D01*
X52157Y19646D01*
Y21850D01*
X52100Y22138D01*
Y24528D01*
X52454Y24882D01*
X53268Y24882D01*
D02*
G37*
G36*
X-2094Y6373D02*
X-1084Y5954D01*
X0Y5811D01*
X1084Y5954D01*
X2094Y6373D01*
X2601Y6762D01*
X41719D01*
X42180Y6454D01*
X42843Y6322D01*
X42799Y6102D01*
Y6000D01*
X43226D01*
X43351Y5917D01*
X43819Y5824D01*
X46969D01*
Y4176D01*
X43819D01*
X43351Y4083D01*
X43226Y4000D01*
X42799D01*
Y3898D01*
X42625Y3686D01*
X42582D01*
X41880Y3546D01*
X41419Y3238D01*
X2601D01*
X2094Y3627D01*
X1084Y4046D01*
X0Y4189D01*
X-1084Y4046D01*
X-2094Y3627D01*
X-2691Y3170D01*
X-3190Y3416D01*
Y6583D01*
X-2691Y6830D01*
X-2094Y6373D01*
D02*
G37*
G36*
X95726Y49770D02*
X96336Y49161D01*
X96650Y48403D01*
X96665Y47936D01*
Y47935D01*
X96665Y47935D01*
X96665Y47935D01*
X96665Y40398D01*
X96569Y40254D01*
X96347Y39922D01*
X96347Y39922D01*
X96347Y39922D01*
X96045Y39194D01*
X96045Y39193D01*
X96045Y39193D01*
X95964Y38783D01*
X95890Y38413D01*
X95890Y38413D01*
X95890Y38413D01*
X95890Y38019D01*
X95890Y34697D01*
X95626Y34433D01*
X94745Y34069D01*
X94269Y34069D01*
X94269Y34069D01*
X94269Y34069D01*
X83600Y34069D01*
Y32888D01*
X83204Y32623D01*
X82762Y31962D01*
X82607Y31181D01*
Y25300D01*
X79441Y25300D01*
Y31181D01*
X79286Y31962D01*
X78843Y32623D01*
X78300Y32986D01*
Y34069D01*
X67700Y34069D01*
Y32786D01*
X67456Y32623D01*
X67014Y31962D01*
X66859Y31181D01*
Y25300D01*
X63693D01*
Y31181D01*
X63577Y31762D01*
Y32134D01*
X63474Y32917D01*
X63172Y33647D01*
X62691Y34273D01*
X62539Y34425D01*
X62539Y50100D01*
X94500Y50100D01*
X94931Y50100D01*
X95726Y49770D01*
D02*
G37*
G36*
X136736Y43061D02*
X136983Y42561D01*
X136547Y41993D01*
X136149Y41032D01*
X136145Y41000D01*
X140000D01*
Y40000D01*
X141000D01*
Y36145D01*
X141032Y36149D01*
X141993Y36547D01*
X142691Y37082D01*
X143191Y36900D01*
Y33665D01*
X142691Y33418D01*
X142194Y33799D01*
X141136Y34238D01*
X140000Y34387D01*
X138865Y34238D01*
X137806Y33799D01*
X136898Y33102D01*
X136201Y32194D01*
X135762Y31135D01*
X135613Y30000D01*
X135762Y28864D01*
X136201Y27806D01*
X136898Y26898D01*
X137806Y26201D01*
X138865Y25762D01*
X140000Y25613D01*
X141136Y25762D01*
X142194Y26201D01*
X142691Y26582D01*
X143191Y26335D01*
Y23665D01*
X142691Y23418D01*
X142194Y23799D01*
X141136Y24238D01*
X140000Y24387D01*
X138865Y24238D01*
X137806Y23799D01*
X136898Y23102D01*
X136201Y22194D01*
X135762Y21136D01*
X135613Y20000D01*
X135762Y18865D01*
X136201Y17806D01*
X136898Y16898D01*
X137806Y16201D01*
X138865Y15762D01*
X140000Y15613D01*
X141136Y15762D01*
X142194Y16201D01*
X142691Y16582D01*
X143191Y16335D01*
Y13665D01*
X142690Y13418D01*
X142194Y13799D01*
X141136Y14238D01*
X140000Y14387D01*
X138865Y14238D01*
X137806Y13799D01*
X136898Y13102D01*
X136201Y12194D01*
X135762Y11135D01*
X135613Y10000D01*
X135762Y8864D01*
X136201Y7806D01*
X136898Y6898D01*
X137806Y6201D01*
X138865Y5762D01*
X140000Y5613D01*
X141136Y5762D01*
X142194Y6201D01*
X142690Y6582D01*
X143191Y6335D01*
X143190Y3665D01*
X142690Y3418D01*
X142194Y3799D01*
X141136Y4238D01*
X140000Y4387D01*
X138865Y4238D01*
X137806Y3799D01*
X136898Y3102D01*
X136201Y2194D01*
X135762Y1135D01*
X135613Y0D01*
X135762Y-1135D01*
X136201Y-2194D01*
X136898Y-3102D01*
X137806Y-3799D01*
X138865Y-4238D01*
X140000Y-4387D01*
X141136Y-4238D01*
X142194Y-3799D01*
X142690Y-3418D01*
X143190Y-3665D01*
Y-6900D01*
X142690Y-7082D01*
X141993Y-6547D01*
X141032Y-6149D01*
X141000Y-6145D01*
Y-10000D01*
Y-13855D01*
X141032Y-13851D01*
X141993Y-13453D01*
X142690Y-12918D01*
X143190Y-13100D01*
X143190Y-16583D01*
X142690Y-16830D01*
X142094Y-16373D01*
X141084Y-15954D01*
X140000Y-15811D01*
X138916Y-15954D01*
X138657Y-16061D01*
X132335Y-9740D01*
Y4022D01*
X132196Y4725D01*
X131798Y5320D01*
X121371Y15746D01*
X120776Y16144D01*
X120073Y16284D01*
X97375D01*
X97201Y16496D01*
Y16598D01*
X96774D01*
X96650Y16682D01*
X96181Y16775D01*
X93032D01*
Y18598D01*
X97201D01*
Y18701D01*
X97123Y19091D01*
X97068Y19173D01*
X97123Y19255D01*
X97201Y19646D01*
Y21285D01*
X97279Y21379D01*
X97701Y21561D01*
X97844Y21451D01*
X100137Y19158D01*
X100799Y18716D01*
X101579Y18561D01*
X104800Y18561D01*
X104857Y18572D01*
X104915Y18564D01*
X105404Y18592D01*
X105542Y18628D01*
X105685Y18627D01*
X106226Y18735D01*
X106412Y18812D01*
X106609Y18851D01*
X107252Y19116D01*
X107419Y19228D01*
X107605Y19305D01*
X108183Y19691D01*
X108325Y19833D01*
X108493Y19945D01*
X108984Y20437D01*
X109096Y20604D01*
X109238Y20746D01*
X109624Y21324D01*
X109701Y21510D01*
X109813Y21677D01*
X110079Y22320D01*
X110118Y22517D01*
X110195Y22703D01*
X110330Y23385D01*
X110330Y23586D01*
X110369Y23784D01*
X110368Y24131D01*
X110368Y30951D01*
X110373Y31046D01*
X110380Y31083D01*
Y31083D01*
X110419Y31278D01*
X110490Y31450D01*
X110593Y31605D01*
X110724Y31736D01*
X110879Y31839D01*
X111051Y31910D01*
X111283Y31956D01*
X111378Y31961D01*
X112617Y31961D01*
X112666Y31461D01*
X112443Y31417D01*
X112112Y31196D01*
X111891Y30865D01*
X111813Y30475D01*
Y27931D01*
X114998D01*
X118183D01*
Y30475D01*
X118106Y30865D01*
X117885Y31196D01*
X117554Y31417D01*
X117331Y31461D01*
X117380Y31961D01*
X118769Y31961D01*
X118784Y31964D01*
X118799Y31961D01*
X119296Y31968D01*
X119477Y32007D01*
X119663Y32007D01*
X120526Y32179D01*
X120712Y32256D01*
X120909Y32295D01*
X121758Y32646D01*
X121925Y32758D01*
X122111Y32835D01*
X122874Y33346D01*
X123017Y33488D01*
X123184Y33600D01*
X123508Y33924D01*
X123508Y33924D01*
X130260Y40676D01*
X130843Y41205D01*
X132191Y42105D01*
X133642Y42706D01*
X135231Y43022D01*
X136018Y43061D01*
X136736Y43061D01*
D02*
G37*
G36*
X60500Y33315D02*
X59863Y32678D01*
X59284Y33065D01*
X58504Y33220D01*
X53150D01*
X52369Y33065D01*
X51708Y32623D01*
X51291Y32000D01*
X48285D01*
Y32846D01*
X45100D01*
Y33846D01*
X44100D01*
Y36835D01*
X42935D01*
X42654Y37065D01*
X42654Y48353D01*
X42654Y48353D01*
X42654Y48353D01*
X42654Y48843D01*
X43028Y49748D01*
X43721Y50441D01*
X44626Y50815D01*
X45115Y50815D01*
X60500Y50815D01*
X60500Y33315D01*
D02*
G37*
G36*
X25510Y-894D02*
X8240Y-18165D01*
X3735D01*
X3627Y-17906D01*
X2962Y-17038D01*
X2094Y-16373D01*
X1084Y-15954D01*
X0Y-15811D01*
X-1084Y-15954D01*
X-2094Y-16373D01*
X-2691Y-16830D01*
X-3190Y-16583D01*
Y-13100D01*
X-2691Y-12918D01*
X-1993Y-13453D01*
X-1032Y-13851D01*
X-1000Y-13855D01*
Y-10000D01*
Y-6145D01*
X-1032Y-6149D01*
X-1993Y-6547D01*
X-2691Y-7082D01*
X-3190Y-6900D01*
X-3190Y-3416D01*
X-2691Y-3170D01*
X-2094Y-3627D01*
X-1084Y-4046D01*
X0Y-4189D01*
X1084Y-4046D01*
X2094Y-3627D01*
X2962Y-2962D01*
X3627Y-2094D01*
X4046Y-1084D01*
X4132Y-432D01*
X25319D01*
X25510Y-894D01*
D02*
G37*
G36*
X136061Y-18657D02*
X135954Y-18916D01*
X135811Y-20000D01*
X135954Y-21084D01*
X136373Y-22094D01*
X137038Y-22962D01*
X137906Y-23627D01*
X138916Y-24046D01*
X140000Y-24189D01*
X141084Y-24046D01*
X142094Y-23627D01*
X142690Y-23170D01*
X143190Y-23417D01*
Y-26583D01*
X142690Y-26830D01*
X142094Y-26373D01*
X141084Y-25954D01*
X140000Y-25811D01*
X138916Y-25954D01*
X138657Y-26061D01*
X130135Y-17540D01*
Y-13384D01*
X130597Y-13193D01*
X136061Y-18657D01*
D02*
G37*
G36*
X66859Y-21181D02*
X67014Y-21961D01*
X67456Y-22623D01*
X67700Y-22786D01*
Y-24069D01*
X78300Y-24069D01*
Y-22986D01*
X78843Y-22623D01*
X79286Y-21961D01*
X79441Y-21181D01*
Y-15300D01*
X82607Y-15300D01*
Y-21181D01*
X82762Y-21961D01*
X83204Y-22623D01*
X83600Y-22888D01*
Y-24069D01*
X88897Y-24069D01*
X89408Y-24411D01*
X89594Y-24488D01*
X89761Y-24599D01*
X90542Y-24923D01*
X90739Y-24962D01*
X90925Y-25039D01*
X91753Y-25203D01*
X91954Y-25203D01*
X92151Y-25242D01*
X92574Y-25242D01*
X96456Y-25242D01*
X96665Y-25748D01*
X96665Y-26165D01*
X96665Y-38735D01*
X96665Y-38735D01*
X96665Y-39066D01*
X96411Y-39678D01*
X95943Y-40146D01*
X95331Y-40400D01*
X95000Y-40400D01*
X62893Y-40400D01*
X62539Y-40046D01*
X62539Y-24269D01*
X62691Y-24117D01*
X63172Y-23491D01*
X63474Y-22761D01*
X63577Y-21978D01*
Y-21763D01*
X63693Y-21181D01*
Y-15300D01*
X66859D01*
Y-21181D01*
D02*
G37*
G36*
X51708Y-22623D02*
X52369Y-23065D01*
X53150Y-23220D01*
X58504D01*
X59284Y-23065D01*
X59863Y-22678D01*
X60500Y-23315D01*
X60500Y-40484D01*
X44315D01*
X43984Y-40484D01*
X43374Y-40232D01*
X42906Y-39764D01*
X42654Y-39154D01*
X42654Y-27065D01*
X42935Y-26834D01*
X44100D01*
Y-23846D01*
X45100D01*
Y-22846D01*
X48285D01*
Y-22000D01*
X51291D01*
X51708Y-22623D01*
D02*
G37*
G36*
X126465Y2351D02*
Y-18300D01*
X126604Y-19002D01*
X127002Y-19598D01*
X136061Y-28657D01*
X135954Y-28916D01*
X135811Y-30000D01*
X135954Y-31084D01*
X136373Y-32094D01*
X137038Y-32962D01*
X137906Y-33627D01*
X138916Y-34046D01*
X140000Y-34189D01*
X141084Y-34046D01*
X142094Y-33627D01*
X142690Y-33170D01*
X143190Y-33417D01*
Y-36900D01*
X142690Y-37082D01*
X141993Y-36547D01*
X141032Y-36149D01*
X141000Y-36145D01*
Y-40000D01*
X140000D01*
Y-41000D01*
X136145D01*
X136149Y-41032D01*
X136547Y-41993D01*
X137082Y-42690D01*
X136900Y-43190D01*
X3417D01*
X3170Y-42690D01*
X3627Y-42094D01*
X4046Y-41084D01*
X4189Y-40000D01*
X4046Y-38916D01*
X3627Y-37906D01*
X2962Y-37038D01*
X2094Y-36373D01*
X1084Y-35954D01*
X0Y-35811D01*
X-1084Y-35954D01*
X-2094Y-36373D01*
X-2691Y-36830D01*
X-3190Y-36584D01*
Y-33417D01*
X-2691Y-33170D01*
X-2094Y-33627D01*
X-1084Y-34046D01*
X0Y-34189D01*
X1084Y-34046D01*
X2094Y-33627D01*
X2962Y-32962D01*
X3627Y-32094D01*
X3735Y-31835D01*
X6500D01*
X7202Y-31696D01*
X7798Y-31298D01*
X29662Y-9434D01*
X42421D01*
X42595Y-9646D01*
Y-11850D01*
X42689Y-12319D01*
X42857Y-12570D01*
Y-13977D01*
X42466Y-14055D01*
X42200Y-14232D01*
X41934Y-14054D01*
X41466Y-13961D01*
X37135D01*
X36667Y-14054D01*
X36270Y-14320D01*
X36005Y-14716D01*
X35911Y-15185D01*
Y-19122D01*
X36005Y-19590D01*
X36270Y-19987D01*
X36667Y-20252D01*
X37135Y-20345D01*
X41466D01*
X41934Y-20252D01*
X41979Y-20222D01*
X42145Y-20265D01*
X42235Y-20331D01*
X42218Y-20913D01*
X42069Y-21013D01*
X42039Y-21058D01*
X41856Y-20936D01*
X41466Y-20858D01*
X40300D01*
Y-23846D01*
Y-26834D01*
X40961D01*
X41032Y-26851D01*
X41045Y-26858D01*
X41430Y-27334D01*
X41430Y-30508D01*
X41163Y-30643D01*
X40930Y-30702D01*
X40650Y-30515D01*
X40260Y-30437D01*
X39094D01*
Y-35000D01*
Y-39563D01*
X40260D01*
X40650Y-39485D01*
X40981Y-39264D01*
X41299Y-39323D01*
X41482Y-39414D01*
X41523Y-39622D01*
X41523Y-39622D01*
X41776Y-40233D01*
X42041Y-40630D01*
X42041Y-40630D01*
X42509Y-41097D01*
X42509Y-41097D01*
X42906Y-41362D01*
X43516Y-41615D01*
X43984Y-41708D01*
X44315Y-41708D01*
X60500D01*
X60968Y-41615D01*
X61365Y-41350D01*
X61520Y-41334D01*
X61739Y-41554D01*
X62269Y-41907D01*
X62893Y-42031D01*
X95000Y-42031D01*
X95000Y-42031D01*
X95000Y-42031D01*
X95331Y-42031D01*
X95642Y-41969D01*
X95955Y-41907D01*
X96567Y-41653D01*
X96863Y-41456D01*
X97097Y-41300D01*
X97565Y-40832D01*
X97741Y-40568D01*
X97918Y-40303D01*
X98172Y-39691D01*
X98234Y-39377D01*
X98296Y-39066D01*
X98296Y-38735D01*
X98296Y-38735D01*
X98296Y-38735D01*
X98296Y-26165D01*
X98297Y-25748D01*
X98297Y-25748D01*
X98297Y-25748D01*
X98295Y-25742D01*
X98678Y-25242D01*
X114899Y-25241D01*
X114988Y-25223D01*
X115078Y-25233D01*
X115560Y-25190D01*
X115666Y-25159D01*
X115777Y-25159D01*
X116083Y-25099D01*
X116269Y-25022D01*
X116466Y-24983D01*
X116958Y-24779D01*
X117125Y-24668D01*
X117311Y-24591D01*
X117754Y-24295D01*
X117896Y-24153D01*
X118063Y-24041D01*
X118440Y-23665D01*
X118552Y-23497D01*
X118694Y-23355D01*
X118989Y-22913D01*
X119066Y-22727D01*
X119178Y-22559D01*
X119381Y-22068D01*
X119421Y-21870D01*
X119497Y-21684D01*
X119601Y-21162D01*
X119601Y-20961D01*
X119640Y-20764D01*
X119639Y-20498D01*
X119639Y-6900D01*
X119611Y-6756D01*
X119618Y-6610D01*
X119553Y-6152D01*
X119468Y-5912D01*
X119419Y-5662D01*
X119256Y-5271D01*
X119256Y-5270D01*
X119256Y-5269D01*
X119036Y-4939D01*
X118815Y-4609D01*
X118814Y-4608D01*
X118814Y-4608D01*
X118392Y-4186D01*
X118391Y-4185D01*
X118391Y-4185D01*
X118058Y-3963D01*
X117730Y-3744D01*
X117729Y-3744D01*
X117729Y-3743D01*
X117177Y-3515D01*
X117177Y-3515D01*
X117176Y-3515D01*
X116782Y-3437D01*
X116397Y-3360D01*
X116396Y-3361D01*
X116396Y-3360D01*
X116097Y-3361D01*
X111284Y-3361D01*
X111037Y-3348D01*
X110505Y-3239D01*
X110052Y-3045D01*
X109959Y-2980D01*
X108347Y-1367D01*
X108397Y-1142D01*
X108566Y-879D01*
X111000D01*
Y2306D01*
X112000D01*
Y3306D01*
X116563D01*
Y4471D01*
X116485Y4861D01*
X116357Y5263D01*
X116578Y5594D01*
X116656Y5984D01*
Y7150D01*
X113668D01*
Y9150D01*
X116656D01*
Y10280D01*
X118536D01*
X126465Y2351D01*
D02*
G37*
G36*
X81000Y4016D02*
X81000Y-4600D01*
X75700Y-4600D01*
X75394Y-4630D01*
X74830Y-4864D01*
X74398Y-5296D01*
X74164Y-5861D01*
X74134Y-6166D01*
Y-11280D01*
X73679Y-11873D01*
X73376Y-12603D01*
X73273Y-13386D01*
Y-14300D01*
X73158Y-14882D01*
X69992D01*
X69837Y-14101D01*
X69395Y-13440D01*
X68733Y-12998D01*
X67953Y-12843D01*
X62598D01*
X62126Y-12937D01*
X61654Y-12843D01*
X59449D01*
X58669Y-12998D01*
X58007Y-13440D01*
X57565Y-14101D01*
X57410Y-14882D01*
X53268D01*
X52454Y-14882D01*
X52100Y-14528D01*
Y-12138D01*
X52157Y-11850D01*
Y-9646D01*
X52100Y-9358D01*
Y-8989D01*
X52157Y-8701D01*
Y-6496D01*
X52100Y-6208D01*
Y-5839D01*
X52157Y-5551D01*
Y-3347D01*
X52100Y-3058D01*
Y-2690D01*
X52157Y-2402D01*
Y-197D01*
X52100Y91D01*
Y460D01*
X52157Y748D01*
Y2953D01*
X52100Y3241D01*
Y4016D01*
X81000Y4016D01*
D02*
G37*
G36*
X42595Y-3347D02*
Y-5551D01*
X42421Y-5763D01*
X28902D01*
X28199Y-5903D01*
X27604Y-6301D01*
X5740Y-28165D01*
X3735D01*
X3627Y-27906D01*
X2962Y-27038D01*
X2094Y-26373D01*
X1084Y-25954D01*
X0Y-25811D01*
X-1084Y-25954D01*
X-2094Y-26373D01*
X-2691Y-26830D01*
X-3190Y-26583D01*
Y-23416D01*
X-2691Y-23170D01*
X-2094Y-23627D01*
X-1084Y-24046D01*
X0Y-24189D01*
X1084Y-24046D01*
X2094Y-23627D01*
X2962Y-22962D01*
X3627Y-22094D01*
X3735Y-21835D01*
X9000D01*
X9702Y-21696D01*
X10298Y-21298D01*
X28461Y-3134D01*
X42421D01*
X42595Y-3347D01*
D02*
G37*
G36*
X140638Y53190D02*
X140890Y53190D01*
X141385Y53092D01*
X141851Y52899D01*
X142271Y52618D01*
X142628Y52262D01*
X142908Y51842D01*
X143102Y51376D01*
X143191Y50928D01*
Y47666D01*
X143089Y47154D01*
X142870Y46626D01*
X142553Y46151D01*
X142149Y45747D01*
X141674Y45430D01*
X141146Y45211D01*
X140784Y45139D01*
X140300Y45100D01*
X135968Y45100D01*
X134982Y45052D01*
X133047Y44667D01*
X131225Y43912D01*
X129585Y42816D01*
X128853Y42153D01*
Y42153D01*
X128853Y42153D01*
X122066Y35366D01*
X121741Y35041D01*
X120978Y34530D01*
X120129Y34179D01*
X119266Y34007D01*
X118769Y34000D01*
X118769Y34000D01*
X111329Y34000D01*
X111035Y33986D01*
X110458Y33872D01*
X109914Y33647D01*
X109425Y33320D01*
X109009Y32904D01*
X108682Y32415D01*
X108457Y31871D01*
X108380Y31479D01*
X108343Y31294D01*
X108329Y31000D01*
X108329D01*
X108329Y24129D01*
X108329Y23781D01*
X108194Y23099D01*
X107929Y22457D01*
X107542Y21879D01*
X107051Y21387D01*
X106473Y21001D01*
X105830Y20735D01*
X105289Y20628D01*
X104800Y20600D01*
Y20600D01*
X101579Y20600D01*
X99192Y22988D01*
X98565Y23469D01*
X97835Y23771D01*
X97052Y23874D01*
X92232D01*
X91448Y23771D01*
X90719Y23469D01*
X90204Y23074D01*
X89882D01*
X89414Y22981D01*
X89017Y22715D01*
X88752Y22319D01*
X88658Y21850D01*
Y19646D01*
X88752Y19177D01*
X88754Y19173D01*
X88752Y19169D01*
X88658Y18701D01*
Y16496D01*
X88752Y16028D01*
X88754Y16024D01*
X88752Y16019D01*
X88658Y15551D01*
Y13347D01*
X88752Y12878D01*
X88754Y12874D01*
X88752Y12870D01*
X88658Y12402D01*
Y10197D01*
X88752Y9729D01*
X88754Y9724D01*
X88752Y9720D01*
X88658Y9252D01*
Y7047D01*
X88752Y6579D01*
X88754Y6575D01*
X88752Y6571D01*
X88658Y6102D01*
Y3898D01*
X88752Y3429D01*
X88754Y3425D01*
X88752Y3421D01*
X88658Y2953D01*
Y748D01*
X88752Y280D01*
X88754Y276D01*
X88752Y271D01*
X88658Y-197D01*
Y-2402D01*
X88752Y-2870D01*
X89017Y-3267D01*
X89414Y-3532D01*
X89882Y-3625D01*
X96181D01*
X96649Y-3532D01*
X97046Y-3267D01*
X97312Y-2870D01*
X97405Y-2402D01*
Y-2253D01*
X97758Y-1900D01*
X97900Y-1900D01*
X98191Y-2020D01*
X99000Y-2127D01*
X99809Y-2020D01*
X100100Y-1900D01*
X100505Y-1900D01*
X100815Y-2278D01*
Y-3246D01*
X104000D01*
Y-4246D01*
X105000D01*
Y-7234D01*
X106166D01*
X106556Y-7157D01*
X106887Y-6936D01*
X107108Y-6605D01*
X107185Y-6215D01*
Y-3840D01*
X107650Y-3654D01*
X107985Y-4007D01*
X108314Y-4319D01*
X109058Y-4837D01*
X109891Y-5194D01*
X110779Y-5377D01*
X111232Y-5400D01*
X116100Y-5400D01*
X116398Y-5400D01*
X116950Y-5628D01*
X117372Y-6050D01*
X117534Y-6442D01*
X117600Y-6900D01*
Y-6900D01*
X117600D01*
X117600Y-6900D01*
X117600Y-20500D01*
X117600Y-20766D01*
X117497Y-21288D01*
X117294Y-21780D01*
X116998Y-22223D01*
X116621Y-22599D01*
X116179Y-22895D01*
X115687Y-23099D01*
X115381Y-23159D01*
X114898Y-23202D01*
X114898Y-23202D01*
X92573Y-23203D01*
X92151Y-23203D01*
X91322Y-23039D01*
X90542Y-22715D01*
X89839Y-22246D01*
X89540Y-21947D01*
X89306Y-21734D01*
X88779Y-21381D01*
X88194Y-21138D01*
X87735Y-21048D01*
X87572Y-21015D01*
X87255Y-21000D01*
X87255D01*
X87255D01*
X87255Y-21000D01*
X87255Y-21000D01*
X86000Y-21000D01*
X85740D01*
Y-14882D01*
X85585Y-14101D01*
X85143Y-13440D01*
X84481Y-12998D01*
X83701Y-12843D01*
X78347D01*
X77566Y-12998D01*
X76904Y-13440D01*
X76614Y-13875D01*
X76114Y-13724D01*
Y-11654D01*
X76121Y-11541D01*
X76173Y-11280D01*
Y-6639D01*
X81000Y-6639D01*
X81780Y-6484D01*
X82442Y-6042D01*
X82884Y-5380D01*
X83039Y-4600D01*
X83039Y4016D01*
X82884Y4796D01*
X82751Y4996D01*
X82898Y5176D01*
X82928Y5272D01*
X82984Y5357D01*
X83042Y5650D01*
X83129Y5937D01*
X83119Y6038D01*
X83139Y6137D01*
X83139Y14600D01*
X82984Y15380D01*
X82542Y16042D01*
X81880Y16484D01*
X81100Y16639D01*
X76173Y16639D01*
Y21280D01*
X76121Y21541D01*
X76114Y21654D01*
Y23724D01*
X76614Y23875D01*
X76904Y23440D01*
X77566Y22998D01*
X78347Y22843D01*
X83701D01*
X84481Y22998D01*
X85143Y23440D01*
X85585Y24102D01*
X85740Y24882D01*
Y31000D01*
X94300Y31000D01*
X94656Y31018D01*
X95354Y31156D01*
X96011Y31429D01*
X96602Y31824D01*
X97105Y32327D01*
X97500Y32918D01*
X97772Y33575D01*
X97911Y34273D01*
X97929Y34629D01*
X97929Y34629D01*
X97929Y38019D01*
X97929Y38413D01*
X98231Y39141D01*
X98788Y39699D01*
X99516Y40000D01*
X99910Y40000D01*
X99910Y40000D01*
X113366Y40000D01*
X113699Y40016D01*
X114351Y40146D01*
X114966Y40401D01*
X115520Y40771D01*
X115990Y41241D01*
X116360Y41795D01*
X116615Y42410D01*
X116745Y43062D01*
X116761Y43395D01*
X116761Y43395D01*
X116761Y45408D01*
X116895Y46428D01*
X116761Y47448D01*
X116761Y48702D01*
X116761Y49144D01*
X116934Y50011D01*
X117272Y50828D01*
X117763Y51563D01*
X118388Y52188D01*
X119123Y52680D01*
X119940Y53018D01*
X120807Y53190D01*
X128520D01*
X140638Y53190D01*
D02*
G37*
G36*
X115862Y53172D02*
X116067Y52696D01*
X115576Y51961D01*
X115499Y51775D01*
X115388Y51609D01*
X115050Y50792D01*
X115010Y50595D01*
X114934Y50409D01*
X114813Y49805D01*
X114286Y49584D01*
X114279Y49585D01*
X113893Y49881D01*
X112932Y50279D01*
X112900Y50283D01*
Y46428D01*
X110900D01*
Y50283D01*
X110868Y50279D01*
X109907Y49881D01*
X109081Y49247D01*
X108447Y48421D01*
X108363Y48217D01*
X107863Y48316D01*
Y49599D01*
X107785Y49989D01*
X107564Y50320D01*
X107233Y50541D01*
X106843Y50619D01*
X104300D01*
Y47434D01*
Y44249D01*
X106843D01*
X107233Y44326D01*
X107564Y44548D01*
X107746Y44820D01*
X108005Y44856D01*
X108285Y44827D01*
X108447Y44434D01*
X109081Y43609D01*
X109907Y42975D01*
X110868Y42577D01*
X111155Y42539D01*
X111123Y42039D01*
X99910Y42039D01*
X99910Y42039D01*
X99516Y42039D01*
X99516Y42039D01*
X99516Y42039D01*
X99150Y41966D01*
X98796Y41896D01*
X98588Y41957D01*
X98296Y42152D01*
X98296Y44920D01*
X98796Y44969D01*
X98814Y44878D01*
X99036Y44548D01*
X99366Y44326D01*
X99756Y44249D01*
X102300D01*
Y47434D01*
Y50619D01*
X99756D01*
X99366Y50541D01*
X99036Y50320D01*
X98814Y49989D01*
X98737Y49599D01*
Y48700D01*
X98237Y48642D01*
X98214Y48741D01*
X98157Y49027D01*
X97843Y49786D01*
X97489Y50315D01*
X96880Y50924D01*
X96351Y51278D01*
X95555Y51607D01*
X94931Y51731D01*
X94500Y51731D01*
X62539Y51731D01*
X61915Y51607D01*
X61569Y51376D01*
X61365Y51681D01*
X60968Y51946D01*
X60500Y52039D01*
X45115Y52039D01*
X44626Y52039D01*
X44626Y52039D01*
X44157Y51946D01*
X44157Y51946D01*
X43253Y51571D01*
X43253Y51571D01*
X42856Y51306D01*
X42163Y50613D01*
X41898Y50216D01*
X41898Y50216D01*
X41625Y49558D01*
X41068Y49519D01*
X40981Y49650D01*
X40650Y49871D01*
X40260Y49948D01*
X39094D01*
Y45386D01*
Y40823D01*
X40260D01*
X40650Y40900D01*
X40930Y41087D01*
X41163Y41029D01*
X41430Y40894D01*
X41430Y37335D01*
X41045Y36858D01*
X41031Y36851D01*
X40961Y36835D01*
X40301D01*
Y33847D01*
Y30858D01*
X41466D01*
X41856Y30936D01*
X42039Y31058D01*
X42069Y31013D01*
X42218Y30914D01*
X42235Y30331D01*
X42144Y30265D01*
X41979Y30222D01*
X41934Y30252D01*
X41466Y30345D01*
X37135D01*
X36667Y30252D01*
X36270Y29987D01*
X36005Y29590D01*
X35911Y29122D01*
Y25185D01*
X36005Y24717D01*
X36270Y24320D01*
X36667Y24055D01*
X37135Y23961D01*
X41466D01*
X41934Y24055D01*
X42200Y24233D01*
X42466Y24055D01*
X42857Y23977D01*
Y22570D01*
X42689Y22319D01*
X42595Y21850D01*
Y21809D01*
X42408Y21683D01*
X42095Y21587D01*
X41783Y21796D01*
X41315Y21889D01*
X37378D01*
X36910Y21796D01*
X36513Y21531D01*
X36248Y21134D01*
X36154Y20665D01*
Y16830D01*
X35656Y16331D01*
X35645D01*
X35642Y16335D01*
Y17500D01*
X32653D01*
X29665D01*
Y16335D01*
X29624Y16284D01*
X16311D01*
X3939Y28657D01*
X4046Y28916D01*
X4189Y30000D01*
X4046Y31084D01*
X3627Y32094D01*
X2962Y32962D01*
X2094Y33627D01*
X1084Y34046D01*
X0Y34189D01*
X-1084Y34046D01*
X-2094Y33627D01*
X-2691Y33170D01*
X-3190Y33417D01*
Y36900D01*
X-2691Y37082D01*
X-1993Y36547D01*
X-1032Y36149D01*
X-1000Y36145D01*
Y40000D01*
Y43855D01*
X-1032Y43851D01*
X-1993Y43453D01*
X-2691Y42918D01*
X-3190Y43100D01*
Y46584D01*
X-2691Y46830D01*
X-2094Y46373D01*
X-1084Y45954D01*
X0Y45811D01*
X1084Y45954D01*
X2094Y46373D01*
X2962Y47038D01*
X3627Y47906D01*
X4046Y48916D01*
X4189Y50000D01*
X4046Y51084D01*
X3627Y52094D01*
X3170Y52690D01*
X3417Y53190D01*
X115843D01*
X115862Y53172D01*
D02*
G37*
%LPC*%
G36*
X139000Y-6145D02*
X138968Y-6149D01*
X138007Y-6547D01*
X137181Y-7181D01*
X136547Y-8007D01*
X136149Y-8968D01*
X136145Y-9000D01*
X139000D01*
Y-6145D01*
D02*
G37*
G36*
Y-11000D02*
X136145D01*
X136149Y-11032D01*
X136547Y-11993D01*
X137181Y-12819D01*
X138007Y-13453D01*
X138968Y-13851D01*
X139000Y-13855D01*
Y-11000D01*
D02*
G37*
G36*
Y39000D02*
X136145D01*
X136149Y38968D01*
X136547Y38007D01*
X137181Y37181D01*
X138007Y36547D01*
X138968Y36149D01*
X139000Y36145D01*
Y39000D01*
D02*
G37*
G36*
X118183Y25931D02*
X115998D01*
Y22368D01*
X117164D01*
X117554Y22446D01*
X117885Y22667D01*
X118106Y22998D01*
X118183Y23388D01*
Y25931D01*
D02*
G37*
G36*
X113998D02*
X111813D01*
Y23388D01*
X111891Y22998D01*
X112112Y22667D01*
X112443Y22446D01*
X112833Y22368D01*
X113998D01*
Y25931D01*
D02*
G37*
G36*
X48906Y49948D02*
X47740D01*
X47350Y49871D01*
X47019Y49650D01*
X46798Y49319D01*
X46721Y48929D01*
Y46385D01*
X48906D01*
Y49948D01*
D02*
G37*
G36*
X52071D02*
X50906D01*
Y46385D01*
X53090D01*
Y48929D01*
X53013Y49319D01*
X52792Y49650D01*
X52461Y49871D01*
X52071Y49948D01*
D02*
G37*
G36*
X53090Y44385D02*
X50906D01*
Y40823D01*
X52071D01*
X52461Y40900D01*
X52792Y41121D01*
X53013Y41452D01*
X53090Y41842D01*
Y44385D01*
D02*
G37*
G36*
X47265Y36835D02*
X46100D01*
Y34846D01*
X48285D01*
Y35815D01*
X48207Y36205D01*
X47986Y36536D01*
X47655Y36757D01*
X47265Y36835D01*
D02*
G37*
G36*
X48906Y44385D02*
X46721D01*
Y41842D01*
X46798Y41452D01*
X47019Y41121D01*
X47350Y40900D01*
X47740Y40823D01*
X48906D01*
Y44385D01*
D02*
G37*
G36*
X3855Y-11000D02*
X1000D01*
Y-13855D01*
X1032Y-13851D01*
X1993Y-13453D01*
X2819Y-12819D01*
X3453Y-11993D01*
X3851Y-11032D01*
X3855Y-11000D01*
D02*
G37*
G36*
X1000Y-6145D02*
Y-9000D01*
X3855D01*
X3851Y-8968D01*
X3453Y-8007D01*
X2819Y-7181D01*
X1993Y-6547D01*
X1032Y-6149D01*
X1000Y-6145D01*
D02*
G37*
G36*
X52071Y-30437D02*
X50906D01*
Y-34000D01*
X53090D01*
Y-31457D01*
X53013Y-31067D01*
X52792Y-30736D01*
X52461Y-30515D01*
X52071Y-30437D01*
D02*
G37*
G36*
X48906D02*
X47740D01*
X47350Y-30515D01*
X47019Y-30736D01*
X46798Y-31067D01*
X46721Y-31457D01*
Y-34000D01*
X48906D01*
Y-30437D01*
D02*
G37*
G36*
X53090Y-36000D02*
X50906D01*
Y-39563D01*
X52071D01*
X52461Y-39485D01*
X52792Y-39264D01*
X53013Y-38934D01*
X53090Y-38543D01*
Y-36000D01*
D02*
G37*
G36*
X48906D02*
X46721D01*
Y-38543D01*
X46798Y-38934D01*
X47019Y-39264D01*
X47350Y-39485D01*
X47740Y-39563D01*
X48906D01*
Y-36000D01*
D02*
G37*
G36*
X48285Y-24846D02*
X46100D01*
Y-26834D01*
X47265D01*
X47655Y-26757D01*
X47986Y-26536D01*
X48207Y-26205D01*
X48285Y-25815D01*
Y-24846D01*
D02*
G37*
G36*
X38300Y-20858D02*
X37135D01*
X36745Y-20936D01*
X36414Y-21157D01*
X36193Y-21487D01*
X36115Y-21878D01*
Y-22846D01*
X38300D01*
Y-20858D01*
D02*
G37*
G36*
X37095Y-30437D02*
X35929D01*
X35539Y-30515D01*
X35208Y-30736D01*
X34987Y-31067D01*
X34910Y-31457D01*
Y-34000D01*
X37095D01*
Y-30437D01*
D02*
G37*
G36*
X139000Y-36145D02*
X138968Y-36149D01*
X138007Y-36547D01*
X137181Y-37181D01*
X136547Y-38007D01*
X136149Y-38968D01*
X136145Y-39000D01*
X139000D01*
Y-36145D01*
D02*
G37*
G36*
X37095Y-36000D02*
X34910D01*
Y-38543D01*
X34987Y-38934D01*
X35208Y-39264D01*
X35539Y-39485D01*
X35929Y-39563D01*
X37095D01*
Y-36000D01*
D02*
G37*
G36*
X38300Y-24846D02*
X36115D01*
Y-25815D01*
X36193Y-26205D01*
X36414Y-26535D01*
X36745Y-26757D01*
X37135Y-26834D01*
X38300D01*
Y-24846D01*
D02*
G37*
G36*
X116157Y-30474D02*
X112594D01*
Y-32659D01*
X115137D01*
X115527Y-32582D01*
X115858Y-32361D01*
X116079Y-32030D01*
X116157Y-31640D01*
Y-30474D01*
D02*
G37*
G36*
X110594D02*
X107031D01*
Y-31640D01*
X107108Y-32030D01*
X107329Y-32361D01*
X107660Y-32582D01*
X108051Y-32659D01*
X110594D01*
Y-30474D01*
D02*
G37*
G36*
X115137Y-26289D02*
X112594D01*
Y-28474D01*
X116157D01*
Y-27309D01*
X116079Y-26919D01*
X115858Y-26588D01*
X115527Y-26367D01*
X115137Y-26289D01*
D02*
G37*
G36*
X110594D02*
X108051D01*
X107660Y-26367D01*
X107329Y-26588D01*
X107108Y-26919D01*
X107031Y-27309D01*
Y-28474D01*
X110594D01*
Y-26289D01*
D02*
G37*
G36*
X116563Y1306D02*
X113000D01*
Y-879D01*
X115543D01*
X115934Y-802D01*
X116264Y-581D01*
X116485Y-250D01*
X116563Y140D01*
Y1306D01*
D02*
G37*
G36*
X99675Y-14949D02*
X98510D01*
X98120Y-15027D01*
X97789Y-15248D01*
X97568Y-15578D01*
X97491Y-15969D01*
Y-16937D01*
X99675D01*
Y-14949D01*
D02*
G37*
G36*
X110594Y-14478D02*
X108051D01*
X107660Y-14556D01*
X107329Y-14777D01*
X107108Y-15108D01*
X107031Y-15498D01*
Y-16663D01*
X110594D01*
Y-14478D01*
D02*
G37*
G36*
X102841Y-14949D02*
X101675D01*
Y-16937D01*
X103860D01*
Y-15969D01*
X103783Y-15578D01*
X103562Y-15248D01*
X103231Y-15027D01*
X102841Y-14949D01*
D02*
G37*
G36*
X103860Y-18937D02*
X101675D01*
Y-20925D01*
X102841D01*
X103231Y-20847D01*
X103562Y-20627D01*
X103783Y-20296D01*
X103860Y-19906D01*
Y-18937D01*
D02*
G37*
G36*
X99675D02*
X97491D01*
Y-19906D01*
X97568Y-20296D01*
X97789Y-20627D01*
X98120Y-20847D01*
X98510Y-20925D01*
X99675D01*
Y-18937D01*
D02*
G37*
G36*
X116157Y-18663D02*
X112594D01*
Y-20848D01*
X115137D01*
X115527Y-20771D01*
X115858Y-20549D01*
X116079Y-20219D01*
X116157Y-19829D01*
Y-18663D01*
D02*
G37*
G36*
X110594D02*
X107031D01*
Y-19829D01*
X107108Y-20219D01*
X107329Y-20549D01*
X107660Y-20771D01*
X108051Y-20848D01*
X110594D01*
Y-18663D01*
D02*
G37*
G36*
X115137Y-14478D02*
X112594D01*
Y-16663D01*
X116157D01*
Y-15498D01*
X116079Y-15108D01*
X115858Y-14777D01*
X115527Y-14556D01*
X115137Y-14478D01*
D02*
G37*
G36*
X111000Y-10506D02*
X107437D01*
Y-11671D01*
X107515Y-12061D01*
X107736Y-12392D01*
X108066Y-12613D01*
X108457Y-12690D01*
X111000D01*
Y-10506D01*
D02*
G37*
G36*
X116563D02*
X113000D01*
Y-12690D01*
X115543D01*
X115934Y-12613D01*
X116264Y-12392D01*
X116485Y-12061D01*
X116563Y-11671D01*
Y-10506D01*
D02*
G37*
G36*
X122900Y50283D02*
Y47428D01*
X125755D01*
X125751Y47460D01*
X125353Y48421D01*
X124719Y49247D01*
X123893Y49881D01*
X122932Y50279D01*
X122900Y50283D01*
D02*
G37*
G36*
X120900Y50283D02*
X120868Y50279D01*
X119907Y49881D01*
X119081Y49247D01*
X118447Y48421D01*
X118049Y47460D01*
X118045Y47428D01*
X120900D01*
Y50283D01*
D02*
G37*
G36*
X102300Y34623D02*
X98737D01*
Y33457D01*
X98814Y33067D01*
X99036Y32737D01*
X99366Y32515D01*
X99756Y32438D01*
X102300D01*
Y34623D01*
D02*
G37*
G36*
X107863D02*
X104300D01*
Y32438D01*
X106843D01*
X107233Y32515D01*
X107564Y32737D01*
X107785Y33067D01*
X107863Y33457D01*
Y34623D01*
D02*
G37*
G36*
X106843Y38808D02*
X104300D01*
Y36623D01*
X107863D01*
Y37788D01*
X107785Y38178D01*
X107564Y38509D01*
X107233Y38730D01*
X106843Y38808D01*
D02*
G37*
G36*
X102300D02*
X99756D01*
X99366Y38730D01*
X99036Y38509D01*
X98814Y38178D01*
X98737Y37788D01*
Y36623D01*
X102300D01*
Y38808D01*
D02*
G37*
G36*
X105353Y31494D02*
X104188D01*
Y27931D01*
X106372D01*
Y30475D01*
X106295Y30865D01*
X106074Y31196D01*
X105743Y31417D01*
X105353Y31494D01*
D02*
G37*
G36*
X125755Y45428D02*
X122900D01*
Y42573D01*
X122932Y42577D01*
X123893Y42975D01*
X124719Y43609D01*
X125353Y44434D01*
X125751Y45396D01*
X125755Y45428D01*
D02*
G37*
G36*
X120900D02*
X118045D01*
X118049Y45396D01*
X118447Y44434D01*
X119081Y43609D01*
X119907Y42975D01*
X120868Y42577D01*
X120900Y42573D01*
Y45428D01*
D02*
G37*
G36*
X111000Y-6321D02*
X108457D01*
X108066Y-6398D01*
X107736Y-6619D01*
X107515Y-6950D01*
X107437Y-7340D01*
Y-8506D01*
X111000D01*
Y-6321D01*
D02*
G37*
G36*
X97030Y-4572D02*
X93032D01*
X92248Y-4676D01*
X91519Y-4978D01*
X91135Y-5273D01*
X89882D01*
X89414Y-5366D01*
X89017Y-5631D01*
X88752Y-6028D01*
X88658Y-6496D01*
Y-8701D01*
X88752Y-9169D01*
X88754Y-9173D01*
X88752Y-9178D01*
X88658Y-9646D01*
Y-11850D01*
X88752Y-12319D01*
X89017Y-12716D01*
X89414Y-12981D01*
X89882Y-13074D01*
X96181D01*
X96649Y-12981D01*
X96806Y-12876D01*
X97306Y-13143D01*
Y-13213D01*
X97398Y-13674D01*
X97659Y-14064D01*
X98049Y-14325D01*
X98510Y-14417D01*
X102841D01*
X103302Y-14325D01*
X103692Y-14064D01*
X103954Y-13674D01*
X104045Y-13213D01*
Y-9276D01*
X103954Y-8815D01*
X103692Y-8424D01*
X103302Y-8163D01*
X102841Y-8071D01*
X101782D01*
X101360Y-7650D01*
X101607Y-7189D01*
X101835Y-7234D01*
X103000D01*
Y-5246D01*
X100815D01*
Y-6215D01*
X100861Y-6443D01*
X100400Y-6689D01*
X99169Y-5459D01*
X98543Y-4978D01*
X97813Y-4676D01*
X97030Y-4572D01*
D02*
G37*
G36*
X115543Y-6321D02*
X113000D01*
Y-8506D01*
X116563D01*
Y-7340D01*
X116485Y-6950D01*
X116264Y-6619D01*
X115934Y-6398D01*
X115543Y-6321D01*
D02*
G37*
G36*
X102188Y31494D02*
X101022D01*
X100632Y31417D01*
X100301Y31196D01*
X100080Y30865D01*
X100002Y30475D01*
Y27931D01*
X102188D01*
Y31494D01*
D02*
G37*
G36*
X106372Y25931D02*
X104188D01*
Y22368D01*
X105353D01*
X105743Y22446D01*
X106074Y22667D01*
X106295Y22998D01*
X106372Y23388D01*
Y25931D01*
D02*
G37*
G36*
X102188D02*
X100002D01*
Y23388D01*
X100080Y22998D01*
X100301Y22667D01*
X100632Y22446D01*
X101022Y22368D01*
X102188D01*
Y25931D01*
D02*
G37*
G36*
X37095Y49948D02*
X35929D01*
X35539Y49871D01*
X35208Y49650D01*
X34987Y49319D01*
X34910Y48929D01*
Y46385D01*
X37095D01*
Y49948D01*
D02*
G37*
G36*
X1000Y43855D02*
Y41000D01*
X3855D01*
X3851Y41032D01*
X3453Y41993D01*
X2819Y42819D01*
X1993Y43453D01*
X1032Y43851D01*
X1000Y43855D01*
D02*
G37*
G36*
X38300Y36835D02*
X37135D01*
X36745Y36757D01*
X36414Y36536D01*
X36193Y36205D01*
X36115Y35815D01*
Y34846D01*
X38300D01*
Y36835D01*
D02*
G37*
G36*
Y32847D02*
X36115D01*
Y31878D01*
X36193Y31488D01*
X36414Y31157D01*
X36745Y30936D01*
X37135Y30858D01*
X38300D01*
Y32847D01*
D02*
G37*
G36*
X21560Y43847D02*
X20985D01*
X20595Y43769D01*
X20264Y43549D01*
X20043Y43218D01*
X19965Y42828D01*
Y42253D01*
X21560D01*
Y43847D01*
D02*
G37*
G36*
X25154Y40253D02*
X23560D01*
Y38658D01*
X24135D01*
X24525Y38736D01*
X24855Y38957D01*
X25076Y39288D01*
X25154Y39678D01*
Y40253D01*
D02*
G37*
G36*
X21560D02*
X19965D01*
Y39678D01*
X20043Y39288D01*
X20264Y38957D01*
X20595Y38736D01*
X20985Y38658D01*
X21560D01*
Y40253D01*
D02*
G37*
G36*
X37095Y44385D02*
X34910D01*
Y41842D01*
X34987Y41452D01*
X35208Y41121D01*
X35539Y40900D01*
X35929Y40823D01*
X37095D01*
Y44385D01*
D02*
G37*
G36*
X3855Y39000D02*
X1000D01*
Y36145D01*
X1032Y36149D01*
X1993Y36547D01*
X2819Y37181D01*
X3453Y38007D01*
X3851Y38968D01*
X3855Y39000D01*
D02*
G37*
G36*
X24135Y43847D02*
X23560D01*
Y42253D01*
X25154D01*
Y42828D01*
X25076Y43218D01*
X24855Y43549D01*
X24525Y43769D01*
X24135Y43847D01*
D02*
G37*
G36*
Y38146D02*
X20985D01*
X20517Y38052D01*
X20120Y37787D01*
X19854Y37390D01*
X19761Y36922D01*
Y33772D01*
X19854Y33304D01*
X20120Y32907D01*
X20517Y32642D01*
X20724Y32601D01*
Y31607D01*
X20394D01*
X19926Y31514D01*
X19529Y31249D01*
X19264Y30852D01*
X19171Y30384D01*
Y27940D01*
X18671Y27612D01*
X18000Y27745D01*
X17103Y27567D01*
X16342Y27058D01*
X15833Y26297D01*
X15655Y25400D01*
X15833Y24503D01*
X16342Y23742D01*
X17103Y23233D01*
X17687Y23117D01*
X19171Y21634D01*
Y19754D01*
X19264Y19286D01*
X19529Y18889D01*
X19926Y18623D01*
X20394Y18530D01*
X24725D01*
X25193Y18623D01*
X25590Y18889D01*
X25855Y19286D01*
X25949Y19754D01*
Y23691D01*
X25855Y24159D01*
X25590Y24556D01*
X25210Y24810D01*
X25193Y24917D01*
Y25220D01*
X25210Y25328D01*
X25590Y25581D01*
X25855Y25978D01*
X25949Y26447D01*
Y30384D01*
X25855Y30852D01*
X25590Y31249D01*
X25193Y31514D01*
X24725Y31607D01*
X24395D01*
Y32601D01*
X24603Y32642D01*
X25000Y32907D01*
X25265Y33304D01*
X25358Y33772D01*
Y36922D01*
X25265Y37390D01*
X25000Y37787D01*
X24603Y38052D01*
X24135Y38146D01*
D02*
G37*
G36*
X34622Y21685D02*
X33653D01*
Y19500D01*
X35642D01*
Y20665D01*
X35564Y21056D01*
X35343Y21386D01*
X35012Y21607D01*
X34622Y21685D01*
D02*
G37*
G36*
X31653D02*
X30685D01*
X30295Y21607D01*
X29964Y21386D01*
X29743Y21056D01*
X29665Y20665D01*
Y19500D01*
X31653D01*
Y21685D01*
D02*
G37*
%LPD*%
D10*
X22560Y28415D02*
D03*
Y21722D02*
D03*
X45100Y-17154D02*
D03*
Y-23846D02*
D03*
Y27154D02*
D03*
Y33847D02*
D03*
X104000Y-4246D02*
D03*
Y2447D02*
D03*
X39300Y-17153D02*
D03*
Y-23846D02*
D03*
Y27154D02*
D03*
Y33847D02*
D03*
X100676Y-17937D02*
D03*
Y-11244D02*
D03*
D11*
X49905Y-35000D02*
D03*
X38094D02*
D03*
X49905Y45386D02*
D03*
X38094D02*
D03*
X114998Y26931D02*
D03*
X103187D02*
D03*
D12*
X93032Y20748D02*
D03*
Y17598D02*
D03*
Y14449D02*
D03*
Y11299D02*
D03*
Y8150D02*
D03*
Y5000D02*
D03*
Y1850D02*
D03*
Y-1299D02*
D03*
Y-4449D02*
D03*
Y-7598D02*
D03*
Y-10748D02*
D03*
X46968D02*
D03*
Y-7598D02*
D03*
Y-4449D02*
D03*
Y-1299D02*
D03*
Y1850D02*
D03*
Y5000D02*
D03*
Y8150D02*
D03*
Y11299D02*
D03*
Y14449D02*
D03*
Y17598D02*
D03*
Y20748D02*
D03*
D13*
X85748Y-18032D02*
D03*
X76299D02*
D03*
X60551D02*
D03*
Y28032D02*
D03*
X76299D02*
D03*
X85748D02*
D03*
D14*
X81024Y-18032D02*
D03*
X71575D02*
D03*
X65276D02*
D03*
X55827D02*
D03*
Y28032D02*
D03*
X65276D02*
D03*
X71575D02*
D03*
X81024D02*
D03*
D15*
X111594Y-29474D02*
D03*
Y-17663D02*
D03*
X112000Y2306D02*
D03*
Y-9505D02*
D03*
X103300Y47434D02*
D03*
Y35623D02*
D03*
D16*
X32653Y18500D02*
D03*
X39347D02*
D03*
X113668Y8150D02*
D03*
X106975D02*
D03*
D17*
X22560Y41253D02*
D03*
Y35347D02*
D03*
D18*
X93032Y-4449D02*
X100031D01*
X100431Y-4050D01*
X93032Y-7598D02*
X97030D01*
X100676Y-11244D01*
X98288Y8700D02*
X106425D01*
X97738Y8150D02*
X98288Y8700D01*
X93032Y8150D02*
X97738D01*
X100431Y-4050D02*
X104001D01*
X106000Y-3300D02*
X108100Y-5400D01*
X104947Y-3300D02*
X106000D01*
X104000Y-4246D02*
X104947Y-3300D01*
X106425Y8700D02*
X106975Y8150D01*
X57983Y-24546D02*
X60551Y-21978D01*
Y-18032D01*
X93174Y5000D02*
X99731D01*
X40431D02*
X46968D01*
X76299Y-13386D02*
X77685Y-12000D01*
X76299Y-18032D02*
Y-13386D01*
X77685Y-12000D02*
X84362D01*
X85748Y-13386D01*
X76299Y23386D02*
Y28032D01*
Y23386D02*
X77685Y22000D01*
X85748Y23386D02*
Y28032D01*
X77685Y22000D02*
X84362D01*
X85748Y23386D01*
Y-18032D02*
Y-13386D01*
X57185Y35500D02*
X60551Y32134D01*
Y28032D02*
Y32134D01*
X45100Y-10748D02*
X46968D01*
X39300Y-17154D02*
X45100D01*
Y-10748D01*
Y20748D02*
Y27154D01*
X39300D02*
X45100D01*
Y20748D02*
X46968D01*
X92232Y20848D02*
X97052D01*
X99700Y18200D01*
D19*
X92142Y19173D02*
X98150D01*
X103300Y47434D02*
X110894D01*
X111900Y46428D01*
X112000Y2306D02*
X113668Y3973D01*
Y8150D01*
X102550Y2447D02*
Y2470D01*
X99731Y5000D02*
X100181Y4550D01*
X100470D01*
X102550Y2470D01*
Y2447D02*
X104000D01*
X104200Y2447D02*
X104341Y2306D01*
X112000D01*
X117850Y8150D02*
X118300Y8600D01*
X113668Y8150D02*
X117850D01*
X109081Y43609D02*
X111900Y46428D01*
D20*
X93032Y11299D02*
X97211D01*
X120073Y14449D02*
X130500Y4022D01*
X128300Y-18300D02*
Y3111D01*
X119296Y12115D02*
X128300Y3111D01*
X130500Y-10500D02*
Y4022D01*
X22300Y35347D02*
X22560Y35088D01*
Y28415D02*
Y35088D01*
X18000Y25400D02*
X21678Y21722D01*
X22560D01*
X15551Y14449D02*
X46968D01*
X0Y30000D02*
X15551Y14449D01*
X130500Y-10500D02*
X140000Y-20000D01*
X128300Y-18300D02*
X140000Y-30000D01*
X9000Y-20000D02*
X27701Y-1299D01*
X0Y-20000D02*
X9000D01*
X27701Y-1299D02*
X46968D01*
X6500Y-30000D02*
X28902Y-7598D01*
X46968D01*
X0Y-30000D02*
X6500D01*
X98150Y1850D02*
X99000Y1000D01*
X93032Y1850D02*
X98150D01*
X0Y0D02*
X1403Y1403D01*
X42582Y1850D02*
X46968D01*
X42135Y1403D02*
X42582Y1850D01*
X1403Y1403D02*
X42135D01*
X42882Y8150D02*
X46968D01*
X42435Y8597D02*
X42882Y8150D01*
X2403Y8597D02*
X42435D01*
X1000Y10000D02*
X2403Y8597D01*
X8701Y11299D02*
X46968D01*
X0Y20000D02*
X8701Y11299D01*
X39748Y17598D02*
X46968D01*
X39347Y18000D02*
X39748Y17598D01*
X0Y10000D02*
X1000D01*
X98026Y12115D02*
X119296D01*
X97211Y11299D02*
X98026Y12115D01*
X93032Y14449D02*
X120073D01*
D21*
X110279Y46428D02*
X111900D01*
D22*
X55827Y21472D02*
Y28032D01*
X71575Y21472D02*
Y28032D01*
X55827Y-18032D02*
Y-11472D01*
X71575Y-18032D02*
Y-11472D01*
X65185Y29000D02*
Y35559D01*
X80933Y29000D02*
Y35559D01*
X81024Y-24591D02*
Y-18032D01*
X65276Y-24591D02*
Y-18032D01*
D23*
X140000Y-10000D02*
D03*
Y-40000D02*
D03*
X111900Y46428D02*
D03*
X121900D02*
D03*
X0Y0D02*
D03*
Y10000D02*
D03*
Y20000D02*
D03*
Y30000D02*
D03*
X140000Y-20000D02*
D03*
Y-30000D02*
D03*
X0Y-40000D02*
D03*
Y-30000D02*
D03*
Y-20000D02*
D03*
Y-10000D02*
D03*
Y40000D02*
D03*
Y50000D02*
D03*
X140000Y40000D02*
D03*
Y50000D02*
D03*
D24*
Y0D02*
D03*
Y10000D02*
D03*
Y20000D02*
D03*
Y30000D02*
D03*
D25*
X126300Y14200D02*
D03*
X124100Y-15100D02*
D03*
X125000Y-25500D02*
D03*
X11900Y25000D02*
D03*
Y34500D02*
D03*
X12600Y5000D02*
D03*
X20600Y-2700D02*
D03*
X10600Y-5100D02*
D03*
X23900Y-39900D02*
D03*
X10000Y-39600D02*
D03*
X33200Y-15100D02*
D03*
X23000Y-24400D02*
D03*
X17300Y-35200D02*
D03*
X22500Y45300D02*
D03*
X17700Y43100D02*
D03*
X17300Y30600D02*
D03*
X117900Y5300D02*
D03*
X106800Y51934D02*
D03*
X103300D02*
D03*
X99800D02*
D03*
D26*
X18000Y25400D02*
D03*
X99000Y1000D02*
D03*
D27*
X118300Y8600D02*
D03*
D28*
X36331Y5000D02*
D03*
X81024Y-24591D02*
D03*
X65276D02*
D03*
X71575Y11472D02*
D03*
X78327D02*
D03*
X63327Y16472D02*
D03*
X55827Y21472D02*
D03*
X102776Y8509D02*
D03*
X55827Y11472D02*
D03*
X71575Y21472D02*
D03*
X55827Y-11472D02*
D03*
X71575D02*
D03*
X78327Y-1472D02*
D03*
X63327Y-6472D02*
D03*
X71575Y-1472D02*
D03*
X55827D02*
D03*
X88433Y40559D02*
D03*
X72685D02*
D03*
X80933Y45559D02*
D03*
X65185D02*
D03*
X65276Y-34591D02*
D03*
X81024D02*
D03*
X72776Y-29591D02*
D03*
X88524D02*
D03*
X99776Y5109D02*
D03*
X65185Y35559D02*
D03*
X80933D02*
D03*
X27654Y18500D02*
D03*
X32232Y5000D02*
D03*
X98150Y19173D02*
D03*
X33094Y-31000D02*
D03*
Y-35000D02*
D03*
Y-39000D02*
D03*
Y41385D02*
D03*
Y45386D02*
D03*
Y49385D02*
D03*
D29*
X119710Y27038D02*
D03*
X113594Y-35474D02*
D03*
X109594D02*
D03*
X33327Y-24165D02*
D03*
Y33528D02*
D03*
X122505Y25400D02*
D03*
M02*
