G04 Layer_Color=8421504*
%FSLAX25Y25*%
%MOIN*%
G70*
G01*
G75*
%ADD10R,0.04331X0.03937*%
%ADD11R,0.04331X0.07087*%
%ADD12R,0.06299X0.02205*%
%ADD13R,0.02205X0.06299*%
%ADD14R,0.05354X0.06299*%
%ADD15R,0.07087X0.04331*%
%ADD16R,0.03937X0.04331*%
%ADD17R,0.03150X0.03150*%
D10*
X22560Y28415D02*
D03*
Y21722D02*
D03*
X45100Y-17154D02*
D03*
Y-23846D02*
D03*
Y27154D02*
D03*
Y33847D02*
D03*
X104000Y-4246D02*
D03*
Y2447D02*
D03*
X39300Y-17153D02*
D03*
Y-23846D02*
D03*
Y27154D02*
D03*
Y33847D02*
D03*
X100676Y-17937D02*
D03*
Y-11244D02*
D03*
D11*
X49905Y-35000D02*
D03*
X38094D02*
D03*
X49905Y45386D02*
D03*
X38094D02*
D03*
X114998Y26931D02*
D03*
X103187D02*
D03*
D12*
X93032Y20748D02*
D03*
Y17598D02*
D03*
Y14449D02*
D03*
Y11299D02*
D03*
Y8150D02*
D03*
Y5000D02*
D03*
Y1850D02*
D03*
Y-1299D02*
D03*
Y-4449D02*
D03*
Y-7598D02*
D03*
Y-10748D02*
D03*
X46968D02*
D03*
Y-7598D02*
D03*
Y-4449D02*
D03*
Y-1299D02*
D03*
Y1850D02*
D03*
Y5000D02*
D03*
Y8150D02*
D03*
Y11299D02*
D03*
Y14449D02*
D03*
Y17598D02*
D03*
Y20748D02*
D03*
D13*
X85748Y-18032D02*
D03*
X76299D02*
D03*
X60551D02*
D03*
Y28032D02*
D03*
X76299D02*
D03*
X85748D02*
D03*
D14*
X81024Y-18032D02*
D03*
X71575D02*
D03*
X65276D02*
D03*
X55827D02*
D03*
Y28032D02*
D03*
X65276D02*
D03*
X71575D02*
D03*
X81024D02*
D03*
D15*
X111594Y-29474D02*
D03*
Y-17663D02*
D03*
X112000Y2306D02*
D03*
Y-9505D02*
D03*
X103300Y47434D02*
D03*
Y35623D02*
D03*
D16*
X32653Y18500D02*
D03*
X39347D02*
D03*
X113668Y8150D02*
D03*
X106975D02*
D03*
D17*
X22560Y41253D02*
D03*
Y35347D02*
D03*
M02*
