G04 Layer_Physical_Order=3*
G04 Layer_Color=13817758*
%FSLAX25Y25*%
%MOIN*%
G70*
G01*
G75*
%ADD18C,0.02000*%
%ADD20C,0.01200*%
%ADD23C,0.05905*%
%ADD24C,0.06299*%
%ADD25C,0.02400*%
%ADD26C,0.02200*%
%ADD27C,0.02780*%
%ADD28C,0.02781*%
%ADD29C,0.02981*%
G36*
X126600Y14924D02*
X126854Y14754D01*
X127024Y14500D01*
X127147Y13882D01*
X127178Y13807D01*
X127186Y13726D01*
X127299Y13515D01*
X127391Y13294D01*
X127448Y13237D01*
X127486Y13165D01*
X127650Y12965D01*
X127713Y12914D01*
X127758Y12846D01*
X127957Y12713D01*
X128142Y12561D01*
X128220Y12538D01*
X128287Y12493D01*
X128522Y12446D01*
X128751Y12376D01*
X128832Y12384D01*
X128911Y12369D01*
X135732Y12369D01*
X136066Y11869D01*
X135762Y11135D01*
X135613Y10000D01*
X135762Y8864D01*
X136201Y7806D01*
X136881Y6920D01*
X136853Y6746D01*
X136742Y6420D01*
X120245Y6420D01*
X120088Y6389D01*
X119927D01*
X119779Y6328D01*
X119621Y6296D01*
X119488Y6207D01*
X119339Y6145D01*
X119225Y6032D01*
X119092Y5943D01*
X119002Y5809D01*
X118889Y5695D01*
X118827Y5547D01*
X118738Y5413D01*
X118707Y5256D01*
X118645Y5107D01*
X118624Y5000D01*
X118454Y4746D01*
X118200Y4576D01*
X117900Y4516D01*
X117600Y4576D01*
X117346Y4746D01*
X117176Y5000D01*
X117155Y5107D01*
X117093Y5256D01*
X117062Y5413D01*
X116973Y5547D01*
X116911Y5695D01*
X116797Y5809D01*
X116708Y5943D01*
X116575Y6032D01*
X116461Y6145D01*
X116313Y6207D01*
X116179Y6296D01*
X116021Y6328D01*
X115873Y6389D01*
X115712D01*
X115555Y6420D01*
X113234D01*
X113154Y6404D01*
X113074Y6412D01*
X111943Y6301D01*
X111865Y6278D01*
X111785D01*
X110670Y6056D01*
X110595Y6025D01*
X110515Y6017D01*
X109427Y5687D01*
X109356Y5649D01*
X109276Y5633D01*
X108226Y5198D01*
X108159Y5153D01*
X108082Y5130D01*
X107079Y4594D01*
X107017Y4543D01*
X106942Y4512D01*
X105997Y3880D01*
X105940Y3823D01*
X105868Y3785D01*
X104990Y3064D01*
X104939Y3001D01*
X104871Y2956D01*
X104470Y2555D01*
X104470Y2554D01*
X101634Y-281D01*
X101506Y-289D01*
X101362Y-123D01*
X101184Y191D01*
X101345Y1000D01*
X101166Y1897D01*
X100658Y2658D01*
X99897Y3167D01*
X99000Y3345D01*
X98103Y3167D01*
X97342Y2658D01*
X96833Y1897D01*
X96655Y1000D01*
X96833Y103D01*
X97282Y-569D01*
X97282Y-569D01*
X97160Y-926D01*
X97069Y-1059D01*
X96647Y-975D01*
X96287Y-826D01*
X95937Y-592D01*
X95937Y-592D01*
X95937Y-592D01*
X95930Y-587D01*
X95785Y-456D01*
X93054Y2275D01*
X92915Y2414D01*
X93106Y2876D01*
X94708D01*
X95566Y3047D01*
X96294Y3533D01*
X99217Y6457D01*
X101195D01*
X101469Y6247D01*
X102099Y5985D01*
X102776Y5897D01*
X103452Y5985D01*
X104082Y6247D01*
X104623Y6662D01*
X105038Y7203D01*
X105299Y7833D01*
X105388Y8509D01*
X105299Y9186D01*
X105038Y9816D01*
X104623Y10357D01*
X104082Y10772D01*
X103452Y11033D01*
X102776Y11122D01*
X102099Y11033D01*
X101882Y10943D01*
X101020D01*
X100919Y11443D01*
X101573Y11719D01*
X102505Y12004D01*
X103460Y12193D01*
X104451Y12285D01*
X104939Y12293D01*
X106371Y12280D01*
X106378Y12282D01*
X106384Y12280D01*
X109292Y12277D01*
X109298Y12278D01*
X109305Y12277D01*
X112213Y12296D01*
X112219Y12297D01*
X112225Y12296D01*
X115133Y12337D01*
X115139Y12338D01*
X115145Y12337D01*
X116581Y12369D01*
X123689D01*
X123768Y12384D01*
X123849Y12376D01*
X124078Y12446D01*
X124313Y12493D01*
X124380Y12538D01*
X124458Y12561D01*
X124643Y12713D01*
X124842Y12846D01*
X124887Y12914D01*
X124950Y12965D01*
X125114Y13165D01*
X125152Y13237D01*
X125209Y13294D01*
X125301Y13515D01*
X125414Y13726D01*
X125422Y13807D01*
X125453Y13882D01*
X125576Y14500D01*
X125746Y14754D01*
X126000Y14924D01*
X126300Y14984D01*
X126600Y14924D01*
D02*
G37*
G36*
X143190Y-4700D02*
X132291Y-4700D01*
X132290Y-4700D01*
X131368Y-4723D01*
X129531Y-4904D01*
X127720Y-5264D01*
X125954Y-5800D01*
X124249Y-6506D01*
X122621Y-7376D01*
X121086Y-8401D01*
X119660Y-9572D01*
X118991Y-10209D01*
X118991Y-10209D01*
X118419Y-10781D01*
X117169Y-11807D01*
X115824Y-12705D01*
X114398Y-13468D01*
X112904Y-14086D01*
X111356Y-14556D01*
X109770Y-14872D01*
X108160Y-15030D01*
X45575D01*
X44809Y-14878D01*
X44087Y-14579D01*
X43438Y-14145D01*
X42885Y-13592D01*
X42451Y-12943D01*
X42152Y-12221D01*
X42000Y-11455D01*
Y34D01*
X42000Y430D01*
X42154Y1206D01*
X42457Y1937D01*
X42561Y2093D01*
X90792D01*
X91204Y1818D01*
X91900Y1122D01*
X94660Y-1638D01*
X94660Y-1638D01*
X94924Y-1877D01*
X95031Y-1949D01*
X95515Y-2272D01*
X96172Y-2544D01*
X96869Y-2682D01*
X97224Y-2700D01*
X99595Y-2700D01*
X100095Y-2700D01*
Y-2700D01*
X100433Y-2683D01*
X100576Y-2655D01*
X101095Y-2552D01*
X101719Y-2293D01*
X102281Y-1918D01*
X102531Y-1691D01*
X105623Y1401D01*
X105623Y1401D01*
X105623Y1401D01*
X106025Y1803D01*
X106903Y2524D01*
X107848Y3155D01*
X108851Y3691D01*
X109901Y4126D01*
X110988Y4456D01*
X112103Y4677D01*
X113234Y4789D01*
X115555D01*
X115639Y4364D01*
X116170Y3570D01*
X116964Y3039D01*
X117900Y2853D01*
X118836Y3039D01*
X119630Y3570D01*
X120161Y4364D01*
X120245Y4789D01*
X143190Y4789D01*
Y-4700D01*
D02*
G37*
G36*
X136830Y52690D02*
X136373Y52094D01*
X135954Y51084D01*
X135811Y50000D01*
X135954Y48916D01*
X136373Y47906D01*
X137038Y47038D01*
X137906Y46373D01*
X138916Y45954D01*
X140000Y45811D01*
X141084Y45954D01*
X142094Y46373D01*
X142691Y46830D01*
X143191Y46584D01*
Y43100D01*
X142691Y42918D01*
X141993Y43453D01*
X141032Y43851D01*
X141000Y43855D01*
Y40000D01*
Y36145D01*
X141032Y36149D01*
X141993Y36547D01*
X142691Y37082D01*
X143191Y36900D01*
Y33665D01*
X142691Y33418D01*
X142194Y33799D01*
X141136Y34238D01*
X140000Y34387D01*
X138865Y34238D01*
X137806Y33799D01*
X136898Y33102D01*
X136201Y32194D01*
X135762Y31135D01*
X135613Y30000D01*
X135762Y28864D01*
X136201Y27806D01*
X136719Y27131D01*
X136472Y26631D01*
X125166Y26631D01*
X124956Y26590D01*
X124743Y26576D01*
X124647Y26528D01*
X124541Y26507D01*
X124364Y26389D01*
X124173Y26294D01*
X124102Y26213D01*
X124012Y26154D01*
X123894Y25976D01*
X123753Y25816D01*
X123718Y25714D01*
X123659Y25624D01*
X123617Y25415D01*
X123548Y25213D01*
X123537Y25124D01*
X123430Y24866D01*
X123260Y24645D01*
X123039Y24475D01*
X122781Y24368D01*
X122505Y24332D01*
X122228Y24368D01*
X121970Y24475D01*
X121749Y24645D01*
X121579Y24866D01*
X121528Y24990D01*
X121468Y25079D01*
X121434Y25181D01*
X121293Y25341D01*
X121175Y25519D01*
X121085Y25579D01*
X121014Y25660D01*
X120823Y25754D01*
X120645Y25872D01*
X120540Y25894D01*
X120443Y25941D01*
X120230Y25955D01*
X120021Y25997D01*
X119915Y25976D01*
X119808Y25983D01*
X119710Y25970D01*
X119434Y26006D01*
X119176Y26113D01*
X118955Y26283D01*
X118785Y26504D01*
X118678Y26762D01*
X118619Y27216D01*
X118593Y27291D01*
X118591Y27369D01*
X118492Y27590D01*
X118414Y27819D01*
X118362Y27878D01*
X118330Y27950D01*
X118154Y28116D01*
X117994Y28297D01*
X117924Y28332D01*
X117867Y28386D01*
X116390Y29310D01*
X116315Y29339D01*
X116251Y29388D01*
X113114Y30946D01*
X113036Y30967D01*
X112968Y31010D01*
X109694Y32253D01*
X109614Y32266D01*
X109541Y32302D01*
X106162Y33219D01*
X106081Y33224D01*
X106005Y33253D01*
X102552Y33834D01*
X102471Y33832D01*
X102393Y33853D01*
X98900Y34093D01*
X98819Y34082D01*
X98739Y34096D01*
X95239Y33992D01*
X95160Y33974D01*
X95080Y33980D01*
X91606Y33534D01*
X91530Y33509D01*
X91449Y33506D01*
X88036Y32723D01*
X87962Y32689D01*
X87882Y32679D01*
X84562Y31565D01*
X84492Y31525D01*
X84413Y31507D01*
X81218Y30073D01*
X81152Y30026D01*
X81075Y30000D01*
X79579Y29144D01*
X78493Y28568D01*
X76197Y27624D01*
X73824Y26993D01*
X71363Y26671D01*
X70134Y26631D01*
X46000Y26631D01*
X45606D01*
X45448Y26600D01*
X45288D01*
X44515Y26446D01*
X44366Y26385D01*
X44209Y26353D01*
X43481Y26052D01*
X43347Y25963D01*
X43199Y25901D01*
X42544Y25463D01*
X42430Y25350D01*
X42297Y25260D01*
X41739Y24703D01*
X41650Y24570D01*
X41537Y24456D01*
X41099Y23801D01*
X41037Y23653D01*
X40948Y23519D01*
X40646Y22791D01*
X40615Y22634D01*
X40554Y22485D01*
X40400Y21712D01*
Y21552D01*
X40369Y21394D01*
Y10339D01*
X39869Y10131D01*
X37243Y12757D01*
Y19404D01*
X37072Y20262D01*
X36586Y20990D01*
X5990Y51586D01*
X5262Y52072D01*
X4404Y52243D01*
X3513D01*
X3170Y52690D01*
X3417Y53190D01*
X136583D01*
X136830Y52690D01*
D02*
G37*
G36*
X102281Y32225D02*
X105735Y31644D01*
X109115Y30728D01*
X112389Y29485D01*
X115525Y27927D01*
X117001Y27003D01*
X117089Y26336D01*
X117360Y25681D01*
X117791Y25119D01*
X118353Y24688D01*
X119008Y24417D01*
X119710Y24325D01*
X120021Y24365D01*
X120154Y24043D01*
X120586Y23481D01*
X121148Y23050D01*
X121802Y22779D01*
X122505Y22686D01*
X123207Y22779D01*
X123862Y23050D01*
X124424Y23481D01*
X124855Y24043D01*
X125126Y24698D01*
X125166Y25000D01*
X143191Y25000D01*
X143191Y14000D01*
X141187D01*
X141083Y14043D01*
X140000Y14185D01*
X138917Y14043D01*
X138813Y14000D01*
X128911Y14000D01*
X128747Y14200D01*
X128561Y15136D01*
X128030Y15930D01*
X127236Y16461D01*
X126300Y16647D01*
X125364Y16461D01*
X124570Y15930D01*
X124039Y15136D01*
X123853Y14200D01*
X123689Y14000D01*
X116563D01*
X115110Y13968D01*
X112202Y13927D01*
X109294Y13908D01*
X106386Y13912D01*
X105430Y13920D01*
X104932Y13925D01*
X104932Y13925D01*
X104362Y13915D01*
X103226Y13809D01*
X102107Y13588D01*
X101016Y13254D01*
X99965Y12811D01*
X98965Y12263D01*
X98159Y11709D01*
X97505Y11623D01*
X96775Y11320D01*
X96149Y10840D01*
X93454Y8145D01*
X42962D01*
X42123Y8984D01*
X42000Y9604D01*
X42000Y10000D01*
Y21394D01*
X42154Y22167D01*
X42455Y22895D01*
X42893Y23550D01*
X43450Y24107D01*
X44105Y24545D01*
X44833Y24846D01*
X45606Y25000D01*
X46000D01*
X70161Y25000D01*
X71495Y25043D01*
X74141Y25389D01*
X76719Y26075D01*
X79187Y27089D01*
X80366Y27715D01*
X80366Y27715D01*
X81886Y28585D01*
X85081Y30018D01*
X88401Y31133D01*
X91814Y31916D01*
X95287Y32362D01*
X98788Y32465D01*
X102281Y32225D01*
D02*
G37*
G36*
X20449Y30782D02*
X17266Y27599D01*
X17103Y27567D01*
X16342Y27058D01*
X15833Y26297D01*
X15655Y25400D01*
X15833Y24503D01*
X16342Y23742D01*
X17103Y23233D01*
X18000Y23055D01*
X18897Y23233D01*
X19658Y23742D01*
X20167Y24503D01*
X20345Y25400D01*
X20331Y25473D01*
X23045Y28187D01*
X32757Y18474D01*
Y11828D01*
X32928Y10969D01*
X33414Y10242D01*
X40123Y3533D01*
X40850Y3047D01*
X40940Y2610D01*
X40933Y2520D01*
X40647Y1830D01*
X40616Y1672D01*
X40554Y1524D01*
X40400Y748D01*
X40400Y587D01*
X40369Y430D01*
X40369Y34D01*
Y-11455D01*
X40400Y-11613D01*
Y-11773D01*
X40552Y-12539D01*
X40614Y-12688D01*
X40645Y-12845D01*
X40944Y-13567D01*
X41033Y-13701D01*
X41095Y-13849D01*
X41529Y-14499D01*
X41642Y-14612D01*
X41732Y-14746D01*
X42284Y-15298D01*
X42418Y-15387D01*
X42531Y-15501D01*
X43181Y-15935D01*
X43329Y-15997D01*
X43463Y-16086D01*
X44185Y-16385D01*
X44342Y-16416D01*
X44491Y-16478D01*
X45257Y-16630D01*
X45418D01*
X45575Y-16661D01*
X108160D01*
X108240Y-16646D01*
X108320Y-16654D01*
X109930Y-16495D01*
X110007Y-16472D01*
X110088D01*
X111674Y-16156D01*
X111749Y-16125D01*
X111830Y-16117D01*
X113377Y-15648D01*
X113449Y-15609D01*
X113528Y-15594D01*
X115022Y-14975D01*
X115089Y-14930D01*
X115167Y-14906D01*
X116593Y-14144D01*
X116656Y-14093D01*
X116730Y-14062D01*
X118075Y-13163D01*
X118132Y-13106D01*
X118204Y-13068D01*
X119454Y-12042D01*
X119505Y-11979D01*
X119573Y-11934D01*
X120129Y-11378D01*
X120741Y-10795D01*
X122059Y-9713D01*
X123461Y-8777D01*
X124947Y-7982D01*
X126504Y-7337D01*
X128117Y-6848D01*
X129770Y-6519D01*
X131468Y-6352D01*
X132314Y-6331D01*
X137467Y-6331D01*
X137636Y-6831D01*
X137181Y-7181D01*
X136547Y-8007D01*
X136149Y-8968D01*
X136145Y-9000D01*
X140000D01*
Y-10000D01*
X141000D01*
Y-13855D01*
X141032Y-13851D01*
X141993Y-13453D01*
X142690Y-12918D01*
X143190Y-13100D01*
X143190Y-16583D01*
X142690Y-16830D01*
X142094Y-16373D01*
X141084Y-15954D01*
X140000Y-15811D01*
X138916Y-15954D01*
X137906Y-16373D01*
X137038Y-17038D01*
X136373Y-17906D01*
X135954Y-18916D01*
X135811Y-20000D01*
X135954Y-21084D01*
X136373Y-22094D01*
X137038Y-22962D01*
X137906Y-23627D01*
X138916Y-24046D01*
X140000Y-24189D01*
X141084Y-24046D01*
X142094Y-23627D01*
X142690Y-23170D01*
X143190Y-23417D01*
Y-26583D01*
X142690Y-26830D01*
X142094Y-26373D01*
X141084Y-25954D01*
X140000Y-25811D01*
X138916Y-25954D01*
X137906Y-26373D01*
X137038Y-27038D01*
X136373Y-27906D01*
X135954Y-28916D01*
X135811Y-30000D01*
X135954Y-31084D01*
X136373Y-32094D01*
X137038Y-32962D01*
X137906Y-33627D01*
X138916Y-34046D01*
X140000Y-34189D01*
X141084Y-34046D01*
X142094Y-33627D01*
X142690Y-33170D01*
X143190Y-33417D01*
Y-36900D01*
X142690Y-37082D01*
X141993Y-36547D01*
X141032Y-36149D01*
X141000Y-36145D01*
Y-40000D01*
X140000D01*
Y-41000D01*
X136145D01*
X136149Y-41032D01*
X136547Y-41993D01*
X137082Y-42690D01*
X136900Y-43190D01*
X3417D01*
X3170Y-42690D01*
X3627Y-42094D01*
X4046Y-41084D01*
X4189Y-40000D01*
X4046Y-38916D01*
X3627Y-37906D01*
X2962Y-37038D01*
X2094Y-36373D01*
X1084Y-35954D01*
X0Y-35811D01*
X-1084Y-35954D01*
X-2094Y-36373D01*
X-2691Y-36830D01*
X-3190Y-36584D01*
Y-33417D01*
X-2691Y-33170D01*
X-2094Y-33627D01*
X-1084Y-34046D01*
X0Y-34189D01*
X1084Y-34046D01*
X2094Y-33627D01*
X2962Y-32962D01*
X3627Y-32094D01*
X4046Y-31084D01*
X4189Y-30000D01*
X4046Y-28916D01*
X3627Y-27906D01*
X2962Y-27038D01*
X2094Y-26373D01*
X1084Y-25954D01*
X0Y-25811D01*
X-1084Y-25954D01*
X-2094Y-26373D01*
X-2691Y-26830D01*
X-3190Y-26583D01*
Y-23416D01*
X-2691Y-23170D01*
X-2094Y-23627D01*
X-1084Y-24046D01*
X0Y-24189D01*
X1084Y-24046D01*
X2094Y-23627D01*
X2962Y-22962D01*
X3627Y-22094D01*
X4046Y-21084D01*
X4189Y-20000D01*
X4046Y-18916D01*
X3627Y-17906D01*
X2962Y-17038D01*
X2094Y-16373D01*
X1084Y-15954D01*
X0Y-15811D01*
X-1084Y-15954D01*
X-2094Y-16373D01*
X-2691Y-16830D01*
X-3190Y-16583D01*
Y-13100D01*
X-2691Y-12918D01*
X-1993Y-13453D01*
X-1032Y-13851D01*
X-1000Y-13855D01*
Y-10000D01*
Y-6145D01*
X-1032Y-6149D01*
X-1993Y-6547D01*
X-2691Y-7082D01*
X-3190Y-6900D01*
X-3190Y-3416D01*
X-2691Y-3170D01*
X-2094Y-3627D01*
X-1084Y-4046D01*
X0Y-4189D01*
X1084Y-4046D01*
X2094Y-3627D01*
X2962Y-2962D01*
X3627Y-2094D01*
X4046Y-1084D01*
X4189Y0D01*
X4046Y1084D01*
X3627Y2094D01*
X2962Y2962D01*
X2094Y3627D01*
X1084Y4046D01*
X0Y4189D01*
X-1084Y4046D01*
X-2094Y3627D01*
X-2691Y3170D01*
X-3190Y3416D01*
Y6583D01*
X-2691Y6830D01*
X-2094Y6373D01*
X-1084Y5954D01*
X0Y5811D01*
X1084Y5954D01*
X2094Y6373D01*
X2962Y7038D01*
X3627Y7906D01*
X4046Y8916D01*
X4189Y10000D01*
X4046Y11084D01*
X3627Y12094D01*
X2962Y12962D01*
X2094Y13627D01*
X1084Y14046D01*
X0Y14189D01*
X-1084Y14046D01*
X-2094Y13627D01*
X-2691Y13170D01*
X-3190Y13417D01*
X-3190Y16583D01*
X-2691Y16830D01*
X-2094Y16373D01*
X-1084Y15954D01*
X0Y15811D01*
X1084Y15954D01*
X2094Y16373D01*
X2962Y17038D01*
X3627Y17906D01*
X4046Y18916D01*
X4189Y20000D01*
X4046Y21084D01*
X3627Y22094D01*
X2962Y22962D01*
X2094Y23627D01*
X1084Y24046D01*
X0Y24189D01*
X-1084Y24046D01*
X-2094Y23627D01*
X-2691Y23170D01*
X-3190Y23416D01*
Y26583D01*
X-2691Y26830D01*
X-2094Y26373D01*
X-1084Y25954D01*
X0Y25811D01*
X1084Y25954D01*
X2094Y26373D01*
X2962Y27038D01*
X3627Y27906D01*
X4046Y28916D01*
X4189Y30000D01*
X4046Y31084D01*
X3627Y32094D01*
X2962Y32962D01*
X2094Y33627D01*
X1084Y34046D01*
X0Y34189D01*
X-1084Y34046D01*
X-2094Y33627D01*
X-2691Y33170D01*
X-3190Y33417D01*
Y36900D01*
X-2691Y37082D01*
X-1993Y36547D01*
X-1032Y36149D01*
X-1000Y36145D01*
Y40000D01*
Y43855D01*
X-1032Y43851D01*
X-1993Y43453D01*
X-2691Y42918D01*
X-3190Y43100D01*
Y46584D01*
X-2691Y46830D01*
X-2094Y46373D01*
X-1084Y45954D01*
X0Y45811D01*
X1084Y45954D01*
X2094Y46373D01*
X2962Y47038D01*
X3266Y47434D01*
X3765Y47467D01*
X20449Y30782D01*
D02*
G37*
%LPC*%
G36*
X65185Y38172D02*
X64509Y38083D01*
X63879Y37822D01*
X63337Y37407D01*
X62922Y36866D01*
X62661Y36235D01*
X62572Y35559D01*
X62661Y34883D01*
X62922Y34253D01*
X63337Y33711D01*
X63879Y33296D01*
X64509Y33035D01*
X65185Y32946D01*
X65861Y33035D01*
X66491Y33296D01*
X67033Y33711D01*
X67448Y34253D01*
X67709Y34883D01*
X67798Y35559D01*
X67709Y36235D01*
X67448Y36866D01*
X67033Y37407D01*
X66491Y37822D01*
X65861Y38083D01*
X65185Y38172D01*
D02*
G37*
G36*
X115755Y45428D02*
X112900D01*
Y42573D01*
X112932Y42577D01*
X113893Y42975D01*
X114719Y43609D01*
X115353Y44434D01*
X115751Y45396D01*
X115755Y45428D01*
D02*
G37*
G36*
X110900D02*
X108045D01*
X108049Y45396D01*
X108447Y44434D01*
X109081Y43609D01*
X109907Y42975D01*
X110868Y42577D01*
X110900Y42573D01*
Y45428D01*
D02*
G37*
G36*
X121900Y50617D02*
X120816Y50474D01*
X119806Y50055D01*
X118938Y49390D01*
X118273Y48522D01*
X117854Y47512D01*
X117711Y46428D01*
X117854Y45344D01*
X118273Y44334D01*
X118938Y43466D01*
X119806Y42801D01*
X120816Y42382D01*
X121900Y42239D01*
X122984Y42382D01*
X123994Y42801D01*
X124862Y43466D01*
X125527Y44334D01*
X125946Y45344D01*
X126089Y46428D01*
X125946Y47512D01*
X125527Y48522D01*
X124862Y49390D01*
X123994Y50055D01*
X122984Y50474D01*
X121900Y50617D01*
D02*
G37*
G36*
X65185Y48172D02*
X64509Y48083D01*
X63879Y47822D01*
X63337Y47407D01*
X62922Y46866D01*
X62661Y46235D01*
X62572Y45559D01*
X62661Y44883D01*
X62922Y44253D01*
X63337Y43712D01*
X63879Y43296D01*
X64509Y43035D01*
X65185Y42946D01*
X65861Y43035D01*
X66491Y43296D01*
X67033Y43712D01*
X67448Y44253D01*
X67709Y44883D01*
X67798Y45559D01*
X67709Y46235D01*
X67448Y46866D01*
X67033Y47407D01*
X66491Y47822D01*
X65861Y48083D01*
X65185Y48172D01*
D02*
G37*
G36*
X112900Y50283D02*
Y47428D01*
X115755D01*
X115751Y47460D01*
X115353Y48421D01*
X114719Y49247D01*
X113893Y49881D01*
X112932Y50279D01*
X112900Y50283D01*
D02*
G37*
G36*
X110900Y50283D02*
X110868Y50279D01*
X109907Y49881D01*
X109081Y49247D01*
X108447Y48421D01*
X108049Y47460D01*
X108045Y47428D01*
X110900D01*
Y50283D01*
D02*
G37*
G36*
X80933Y48172D02*
X80257Y48083D01*
X79627Y47822D01*
X79085Y47407D01*
X78670Y46866D01*
X78409Y46235D01*
X78320Y45559D01*
X78409Y44883D01*
X78670Y44253D01*
X79085Y43712D01*
X79627Y43296D01*
X80257Y43035D01*
X80933Y42946D01*
X81609Y43035D01*
X82240Y43296D01*
X82781Y43712D01*
X83196Y44253D01*
X83457Y44883D01*
X83546Y45559D01*
X83457Y46235D01*
X83196Y46866D01*
X82781Y47407D01*
X82240Y47822D01*
X81609Y48083D01*
X80933Y48172D01*
D02*
G37*
G36*
X139000Y39000D02*
X136145D01*
X136149Y38968D01*
X136547Y38007D01*
X137181Y37181D01*
X138007Y36547D01*
X138968Y36149D01*
X139000Y36145D01*
Y39000D01*
D02*
G37*
G36*
X80933Y38172D02*
X80257Y38083D01*
X79627Y37822D01*
X79085Y37407D01*
X78670Y36866D01*
X78409Y36235D01*
X78320Y35559D01*
X78409Y34883D01*
X78670Y34253D01*
X79085Y33711D01*
X79627Y33296D01*
X80257Y33035D01*
X80933Y32946D01*
X81609Y33035D01*
X82240Y33296D01*
X82781Y33711D01*
X83196Y34253D01*
X83457Y34883D01*
X83546Y35559D01*
X83457Y36235D01*
X83196Y36866D01*
X82781Y37407D01*
X82240Y37822D01*
X81609Y38083D01*
X80933Y38172D01*
D02*
G37*
G36*
X72685Y43172D02*
X72009Y43083D01*
X71378Y42822D01*
X70837Y42407D01*
X70422Y41866D01*
X70161Y41235D01*
X70072Y40559D01*
X70161Y39883D01*
X70422Y39253D01*
X70837Y38712D01*
X71378Y38296D01*
X72009Y38035D01*
X72685Y37946D01*
X73361Y38035D01*
X73991Y38296D01*
X74533Y38712D01*
X74948Y39253D01*
X75209Y39883D01*
X75298Y40559D01*
X75209Y41235D01*
X74948Y41866D01*
X74533Y42407D01*
X73991Y42822D01*
X73361Y43083D01*
X72685Y43172D01*
D02*
G37*
G36*
X139000Y43855D02*
X138968Y43851D01*
X138007Y43453D01*
X137181Y42819D01*
X136547Y41993D01*
X136149Y41032D01*
X136145Y41000D01*
X139000D01*
Y43855D01*
D02*
G37*
G36*
X88433Y43172D02*
X87757Y43083D01*
X87127Y42822D01*
X86585Y42407D01*
X86170Y41866D01*
X85909Y41235D01*
X85820Y40559D01*
X85909Y39883D01*
X86170Y39253D01*
X86585Y38712D01*
X87127Y38296D01*
X87757Y38035D01*
X88433Y37946D01*
X89109Y38035D01*
X89740Y38296D01*
X90281Y38712D01*
X90696Y39253D01*
X90957Y39883D01*
X91046Y40559D01*
X90957Y41235D01*
X90696Y41866D01*
X90281Y42407D01*
X89740Y42822D01*
X89109Y43083D01*
X88433Y43172D01*
D02*
G37*
G36*
X98150Y21786D02*
X97473Y21697D01*
X96843Y21436D01*
X96302Y21021D01*
X95887Y20480D01*
X95626Y19850D01*
X95537Y19173D01*
X95626Y18497D01*
X95887Y17867D01*
X96302Y17326D01*
X96843Y16910D01*
X97473Y16649D01*
X98150Y16560D01*
X98826Y16649D01*
X99456Y16910D01*
X99997Y17326D01*
X100412Y17867D01*
X100673Y18497D01*
X100762Y19173D01*
X100673Y19850D01*
X100412Y20480D01*
X99997Y21021D01*
X99456Y21436D01*
X98826Y21697D01*
X98150Y21786D01*
D02*
G37*
G36*
X139000Y-11000D02*
X136145D01*
X136149Y-11032D01*
X136547Y-11993D01*
X137181Y-12819D01*
X138007Y-13453D01*
X138968Y-13851D01*
X139000Y-13855D01*
Y-11000D01*
D02*
G37*
G36*
X3855D02*
X1000D01*
Y-13855D01*
X1032Y-13851D01*
X1993Y-13453D01*
X2819Y-12819D01*
X3453Y-11993D01*
X3851Y-11032D01*
X3855Y-11000D01*
D02*
G37*
G36*
X1000Y-6145D02*
Y-9000D01*
X3855D01*
X3851Y-8968D01*
X3453Y-8007D01*
X2819Y-7181D01*
X1993Y-6547D01*
X1032Y-6149D01*
X1000Y-6145D01*
D02*
G37*
G36*
X81024Y-31978D02*
X80347Y-32067D01*
X79717Y-32328D01*
X79176Y-32743D01*
X78761Y-33284D01*
X78500Y-33914D01*
X78411Y-34591D01*
X78500Y-35267D01*
X78761Y-35897D01*
X79176Y-36438D01*
X79717Y-36853D01*
X80347Y-37115D01*
X81024Y-37203D01*
X81700Y-37115D01*
X82330Y-36853D01*
X82871Y-36438D01*
X83286Y-35897D01*
X83548Y-35267D01*
X83636Y-34591D01*
X83548Y-33914D01*
X83286Y-33284D01*
X82871Y-32743D01*
X82330Y-32328D01*
X81700Y-32067D01*
X81024Y-31978D01*
D02*
G37*
G36*
X65276D02*
X64599Y-32067D01*
X63969Y-32328D01*
X63428Y-32743D01*
X63013Y-33284D01*
X62752Y-33914D01*
X62663Y-34591D01*
X62752Y-35267D01*
X63013Y-35897D01*
X63428Y-36438D01*
X63969Y-36853D01*
X64599Y-37115D01*
X65276Y-37203D01*
X65952Y-37115D01*
X66582Y-36853D01*
X67123Y-36438D01*
X67538Y-35897D01*
X67800Y-35267D01*
X67888Y-34591D01*
X67800Y-33914D01*
X67538Y-33284D01*
X67123Y-32743D01*
X66582Y-32328D01*
X65952Y-32067D01*
X65276Y-31978D01*
D02*
G37*
G36*
X139000Y-36145D02*
X138968Y-36149D01*
X138007Y-36547D01*
X137181Y-37181D01*
X136547Y-38007D01*
X136149Y-38968D01*
X136145Y-39000D01*
X139000D01*
Y-36145D01*
D02*
G37*
G36*
X72776Y-26978D02*
X72099Y-27067D01*
X71469Y-27328D01*
X70928Y-27743D01*
X70513Y-28284D01*
X70252Y-28914D01*
X70163Y-29591D01*
X70252Y-30267D01*
X70513Y-30897D01*
X70928Y-31438D01*
X71469Y-31853D01*
X72099Y-32114D01*
X72776Y-32204D01*
X73452Y-32114D01*
X74082Y-31853D01*
X74623Y-31438D01*
X75038Y-30897D01*
X75300Y-30267D01*
X75388Y-29591D01*
X75300Y-28914D01*
X75038Y-28284D01*
X74623Y-27743D01*
X74082Y-27328D01*
X73452Y-27067D01*
X72776Y-26978D01*
D02*
G37*
G36*
X81024Y-21978D02*
X80347Y-22067D01*
X79717Y-22328D01*
X79176Y-22743D01*
X78761Y-23284D01*
X78500Y-23914D01*
X78411Y-24591D01*
X78500Y-25267D01*
X78761Y-25897D01*
X79176Y-26438D01*
X79717Y-26853D01*
X80347Y-27114D01*
X81024Y-27204D01*
X81700Y-27114D01*
X82330Y-26853D01*
X82871Y-26438D01*
X83286Y-25897D01*
X83548Y-25267D01*
X83636Y-24591D01*
X83548Y-23914D01*
X83286Y-23284D01*
X82871Y-22743D01*
X82330Y-22328D01*
X81700Y-22067D01*
X81024Y-21978D01*
D02*
G37*
G36*
X65276D02*
X64599Y-22067D01*
X63969Y-22328D01*
X63428Y-22743D01*
X63013Y-23284D01*
X62752Y-23914D01*
X62663Y-24591D01*
X62752Y-25267D01*
X63013Y-25897D01*
X63428Y-26438D01*
X63969Y-26853D01*
X64599Y-27114D01*
X65276Y-27204D01*
X65952Y-27114D01*
X66582Y-26853D01*
X67123Y-26438D01*
X67538Y-25897D01*
X67800Y-25267D01*
X67888Y-24591D01*
X67800Y-23914D01*
X67538Y-23284D01*
X67123Y-22743D01*
X66582Y-22328D01*
X65952Y-22067D01*
X65276Y-21978D01*
D02*
G37*
G36*
X88524Y-26978D02*
X87847Y-27067D01*
X87217Y-27328D01*
X86676Y-27743D01*
X86261Y-28284D01*
X86000Y-28914D01*
X85911Y-29591D01*
X86000Y-30267D01*
X86261Y-30897D01*
X86676Y-31438D01*
X87217Y-31853D01*
X87847Y-32114D01*
X88524Y-32204D01*
X89200Y-32114D01*
X89830Y-31853D01*
X90371Y-31438D01*
X90786Y-30897D01*
X91048Y-30267D01*
X91136Y-29591D01*
X91048Y-28914D01*
X90786Y-28284D01*
X90371Y-27743D01*
X89830Y-27328D01*
X89200Y-27067D01*
X88524Y-26978D01*
D02*
G37*
G36*
X3855Y39000D02*
X1000D01*
Y36145D01*
X1032Y36149D01*
X1993Y36547D01*
X2819Y37181D01*
X3453Y38007D01*
X3851Y38968D01*
X3855Y39000D01*
D02*
G37*
G36*
X1000Y43855D02*
Y41000D01*
X3855D01*
X3851Y41032D01*
X3453Y41993D01*
X2819Y42819D01*
X1993Y43453D01*
X1032Y43851D01*
X1000Y43855D01*
D02*
G37*
%LPD*%
D18*
X4404Y50000D02*
X35000Y19404D01*
Y11828D02*
Y19404D01*
X0Y50000D02*
X4404D01*
X35000Y11828D02*
X41709Y5119D01*
X94708D01*
X102585Y8700D02*
X102776Y8509D01*
X98288Y8700D02*
X102585D01*
X94708Y5119D02*
X98288Y8700D01*
D20*
X18000Y25400D02*
Y25737D01*
X22956Y30693D01*
D23*
X140000Y-10000D02*
D03*
Y-40000D02*
D03*
X111900Y46428D02*
D03*
X0Y-10000D02*
D03*
Y40000D02*
D03*
Y50000D02*
D03*
X140000Y40000D02*
D03*
D24*
Y0D02*
D03*
Y20000D02*
D03*
D25*
X126300Y14200D02*
D03*
X124100Y-15100D02*
D03*
X125000Y-25500D02*
D03*
X11900Y25000D02*
D03*
Y34500D02*
D03*
X12600Y5000D02*
D03*
X20600Y-2700D02*
D03*
X10600Y-5100D02*
D03*
X23900Y-39900D02*
D03*
X10000Y-39600D02*
D03*
X33200Y-15100D02*
D03*
X23000Y-24400D02*
D03*
X17300Y-35200D02*
D03*
X22500Y45300D02*
D03*
X17700Y43100D02*
D03*
X17300Y30600D02*
D03*
X117900Y5300D02*
D03*
X106800Y51934D02*
D03*
X103300D02*
D03*
X99800D02*
D03*
D26*
X18000Y25400D02*
D03*
D27*
X118300Y8600D02*
D03*
D28*
X36331Y5000D02*
D03*
X71575Y11472D02*
D03*
X78327D02*
D03*
X63327Y16472D02*
D03*
X55827Y21472D02*
D03*
X102776Y8509D02*
D03*
X55827Y11472D02*
D03*
X71575Y21472D02*
D03*
X55827Y-11472D02*
D03*
X71575D02*
D03*
X78327Y-1472D02*
D03*
X63327Y-6472D02*
D03*
X71575Y-1472D02*
D03*
X55827D02*
D03*
X99776Y5109D02*
D03*
X27654Y18500D02*
D03*
X32232Y5000D02*
D03*
X33094Y-31000D02*
D03*
Y-35000D02*
D03*
Y-39000D02*
D03*
Y41385D02*
D03*
Y45386D02*
D03*
Y49385D02*
D03*
D29*
X119710Y27038D02*
D03*
X113594Y-35474D02*
D03*
X109594D02*
D03*
X33327Y-24165D02*
D03*
Y33528D02*
D03*
X122505Y25400D02*
D03*
M02*
