M48
;Layer_Color=9474304
;FILE_FORMAT=2:5
INCH,LZ
;TYPE=PLATED
T1F00S00C0.01181
T2F00S00C0.01200
T3F00S00C0.03543
T4F00S00C0.03937
%
T01
X0109594Y-0035474
X0113594
X0033094Y-0039
Y-0035
Y-0031
X0033327Y-0024165
X0032232Y0005
X0036331
X0027654Y00185
X0033327Y0033528
X0033094Y0041385
Y0045386
Y0049385
X0065185Y0045559
Y0035559
X0072685Y0040559
X0080933Y0045559
Y0035559
X0088433Y0040559
X0071575Y0021472
Y0011472
X0078327
Y-0001472
X0071575
Y-0011472
X0063327Y-0006472
X0055827Y-0011472
Y-0001472
Y0011472
Y0021472
X0063327Y0016472
X0065276Y-0024591
Y-0034591
X0072776Y-0029591
X0081024Y-0024591
Y-0034591
X0088524Y-0029591
X0102776Y0008509
X009815Y0019173
X011971Y0027038
X0122505Y00254
X01068Y0051934
X01033
X00998
T02
X001Y-00396
X00173Y-00352
X00239Y-00399
X0023Y-00244
X00332Y-00151
X00206Y-00027
X00106Y-00051
X00126Y0005
X00119Y0025
X0018Y00254
X00173Y00306
X00119Y00345
X00177Y00431
X00225Y00453
X0099776Y0005109
X0099Y0001
X01179Y00053
X01183Y00086
X01263Y00142
X01241Y-00151
X0125Y-00255
T03
X014Y-004
X0
Y-003
Y-002
Y-001
Y0
Y001
Y002
Y003
Y004
Y005
X01119Y0046428
X01219
X014Y005
Y004
Y-001
Y-002
Y-003
T04
X014Y0
Y001
Y002
Y003
M30
